<?xml version="1.0" standalone="no"?>
<!DOCTYPE svg PUBLIC "-//W3C//DTD SVG 1.1//EN" "http://www.w3.org/Graphics/SVG/1.1/DTD/svg11.dtd" >
<svg xmlns="http://www.w3.org/2000/svg">
<metadata>
This is a custom SVG webfont generated by Font Squirrel.
Designer    : Ethan Dunham
Foundry     : Ethan Dunham - Fonthead Design
Foundry URL : http://www.fonthead.com
</metadata>
<defs>
<font id="webfontVFGOXOjp" horiz-adv-x="185" >
<font-face units-per-em="1000" ascent="800" descent="-200" />
<missing-glyph horiz-adv-x="500" />
<glyph unicode=" " />
<glyph unicode="!" horiz-adv-x="231" d="M103 120q8 -5 20 -5q-2 -14 3 -38t2.5 -40.5t-20.5 -27.5q-37 -22 -59 2.5t-32 68.5q0 30 29.5 44t56.5 -4zM89 166q-13 5 -19.5 13t-7 19t0.5 20.5t4 23.5t4 22q29 219 73 348q7 21 29.5 26.5t40.5 -4.5t16 -27q-6 -77 -43 -222.5t-46 -210.5q0 -29 -52 -8z" />
<glyph unicode="&#x22;" horiz-adv-x="293" d="M211 465q0 84 13 142q4 19 32.5 30t31.5 -10q8 -51 1.5 -122t-13.5 -125q-3 -10 -25 -12t-32 12q-8 18 -8.5 42.5t0.5 42.5zM29 469q0 1 -2 65t2 65q2 21 23.5 32t33.5 -4q25 -34 28 -76.5t-6.5 -101t-9.5 -85.5q0 -11 -25 -12t-32 16q-12 32 -12 101z" />
<glyph unicode="#" horiz-adv-x="491" d="M263 183q-13 -6 -26 -3.5t-24.5 0.5t-14.5 -12q-6 -27 3.5 -81.5t1.5 -76.5q-7 -18 -34 -6.5t-35 31.5q-7 19 -14 60t-15 58q-7 15 -40.5 5t-43.5 5q-8 19 -8 29.5t13.5 19.5t26.5 14l31 10q18 6 26 11q-8 16 -2 35t5 34t-18 15q-3 0 -12 -13t-18 -7q-35 12 -44 25 q-9 28 5 49q10 11 45.5 27t43.5 32q8 11 9.5 30.5t-1 37t0.5 36.5q6 34 41 36.5t53 -21.5q15 -18 2.5 -61.5t2.5 -57.5q19 -14 51.5 -6.5t47.5 26.5q20 20 28.5 77t25.5 76q10 14 23.5 20t30.5 -5q3 -2 21.5 -9t18.5 -16q2 -17 -21.5 -63t-3.5 -65q3 -3 21 -14.5t23 -20.5 q4 -7 1 -18.5t-10 -15.5q-10 -5 -32.5 -9.5t-32.5 -10.5q-18 -10 -15.5 -45.5t-8.5 -53.5q6 -3 10 -10.5t5 -8.5q29 -5 50 -21t4 -39q-10 -13 -37 -14t-32 -10q-13 -20 -5.5 -74t0.5 -74q-15 -29 -64 20q-16 15 -20 51.5t-5 66.5q0 10 -12.5 10t-21.5 -5zM263 262 q24 -6 35.5 13.5t10.5 46t-2 48.5q-19 -5 -37.5 -3t-36.5 -0.5t-25 -15.5q-35 -66 5 -94q5 -5 22.5 1t27.5 4z" />
<glyph unicode="$" horiz-adv-x="305" d="M30 135q-22 19 -9.5 37t33.5 18q14 2 35.5 -16.5t26.5 -11.5q14 19 17.5 48.5t1 56t1.5 56.5q-46 18 -78 47.5t-32 69.5q0 18 12 24q43 55 133 74q21 7 24.5 11.5t-0.5 13t3 29.5q6 12 19.5 14.5t16.5 -6.5q12 -14 6 -29.5t-2 -32.5q2 -7 17 -15t28 -13.5t20 -15.5 t-7 -22q-8 -8 -33.5 -3.5t-36.5 -0.5q-22 -14 -25.5 -47.5t9.5 -50.5q8 -12 28 -25t35.5 -27.5t18.5 -33.5q11 -62 -11 -114q-9 -21 -46 -39.5t-48 -34.5q-15 -22 -8 -45.5t-16 -45.5q-6 -9 -20.5 -3t-14.5 15q-4 26 -1 34.5t2.5 18t-9.5 26.5q-6 12 -41 20t-49 19zM187 206 q0 -4 -2.5 -11t-2.5 -12t5 -9q13 -4 26 1t13 19q7 24 -3 56t-29 18q-7 -8 -7 -62zM120 448q-26 -13 -19 -35q2 -8 11 -15.5t16 -7.5q14 -2 19 11.5t2 30.5t-9 28q-4 3 -6 1.5t-6.5 -7t-7.5 -6.5z" />
<glyph unicode="%" horiz-adv-x="620" d="M120 367l-26 8q-14 4 -25 8t-21.5 11t-18.5 16q-25 30 -19 63.5t33 52.5q95 67 155 39q44 -21 60 -75.5t-12 -98.5q-34 -52 -126 -24zM106 454q-4 -25 22.5 -34.5t45.5 5.5q9 7 11 13.5t0 16.5t-2 13q0 2 -2 4.5t-6 5.5t-6 5q-21 4 -40.5 -2.5t-22.5 -26.5zM163 151 q23 68 62 130t105.5 146.5t90.5 118.5q13 18 24.5 21.5t33.5 -7.5q8 -8 9 -24.5t-3 -24.5q-25 -53 -70 -120.5t-83.5 -119t-77.5 -121.5t-58 -135q-22 -3 -34 -2.5t-18 10t-8 34.5q0 15 4 29.5t12 35.5zM325 142q6 14 20 33.5t17 26.5q5 5 23.5 15.5t26.5 20.5q18 19 68 19 q47 -8 82.5 -46t32.5 -87q-14 -10 -34 -26l-35 -30q-16 -13 -36.5 -26.5t-38.5 -21t-40.5 -7.5t-44.5 10q-31 14 -43 49.5t2 69.5zM416 115q-6 -15 -0.5 -26.5t19.5 -5.5l23 13q18 11 27 17.5t16 17t2 20.5q-16 29 -45.5 12t-41.5 -48z" />
<glyph unicode="&#x26;" horiz-adv-x="277" d="M258 421q3 -44 -30 -60q-11 -10 -27.5 -8.5t-24.5 15.5q-4 4 -3.5 19.5t-0.5 25.5q-6 13 -20.5 11.5t-20.5 -11.5q-19 -23 -4.5 -58.5t45.5 -46.5q8 -3 10 -15.5t-2 -17.5q-5 -10 -13.5 -16t-18.5 -8t-22.5 -3.5t-24.5 -2.5q-7 -7 -7 -15q5 -13 19 -21.5t18 -4.5 q15 7 33.5 12t36 5.5t27 -7.5t4.5 -25q-7 -23 -21 -51t-21.5 -52t-6.5 -55q1 -15 -17.5 -27.5t-34.5 -6.5q-8 0 -15.5 8.5t-10.5 17.5q0 25 11 53t11 53q-2 12 -29 16t-34 10q-32 26 -45 64q-10 26 18 54t27 47q-1 3 -5.5 19.5t-5.5 23.5l-3 21q-2 13 0 23.5t6 20.5 q14 25 45 49q12 6 46 7t40 15q11 25 9.5 54t12.5 54q11 18 40.5 12t27.5 -30q-3 -30 -9 -58.5t-9 -52t-1 -57.5z" />
<glyph unicode="'" horiz-adv-x="121" d="M107 472q-1 -9 1.5 -26.5t3 -26.5t-4.5 -21q-7 -10 -23 -13t-22 5q-24 28 -30 68t1.5 76t12.5 76q2 13 13.5 21t25 9t24 -6t10.5 -20q3 -30 1.5 -45.5t-7 -47.5t-6.5 -49z" />
<glyph unicode="(" horiz-adv-x="331" d="M310 628q34 -34 15 -48q-22 -20 -83.5 -62.5t-90.5 -72.5q-26 -27 -35.5 -63.5t-8 -66t9.5 -73.5q3 -20 8 -43.5t11 -43.5t17 -40.5t27 -36.5q6 -4 18 -1t18.5 4.5t11.5 -8.5q7 -15 2 -30t-16 -23q-53 -24 -68 -19q-4 1 -15 3t-17.5 4.5t-10.5 6.5q-116 176 -87 358 q0 8 6.5 28.5t7.5 24.5q58 116 232 207q26 19 48 -5z" />
<glyph unicode=")" horiz-adv-x="312" d="M120 640q20 5 40 -5q79 -85 138 -256q27 -81 0 -148q-48 -116 -217 -222q-30 -18 -64 0q-7 6 -6 18.5t6 21.5q20 22 69 59.5t79.5 73t38.5 79.5q15 76 -23 154.5t-105 140.5q-21 22 -4.5 49t48.5 35z" />
<glyph unicode="*" horiz-adv-x="416" d="M256 640q14 0 25.5 -9t6.5 -23q-22 -62 -32 -119q24 -4 56.5 2t54.5 12q26 9 42 -6.5t-2 -36.5q-19 -22 -68 -27t-65 -13q18 -21 37 -41t49 -49l40 -39q0 -7 -7 -14q-24 -13 -51 0q-19 8 -36 21.5t-40 37.5l-32 31q-7 -18 -20 -59.5t-26 -70t-33 -50.5q-8 -11 -30 -10 t-17 20q5 29 31.5 93t26.5 102q-55 -10 -108 -36q-18 -7 -36 0q-24 19 -7 36q16 24 64.5 37.5t64.5 26.5q-31 44 -100 76q-4 1 -5 4.5t0 10t1 7.5q0 17 17 29.5t33 2.5q21 -13 55.5 -39t45.5 -33q3 -3 4 1t1 11t2 10q2 7 8 40.5t16.5 48.5t33.5 15z" />
<glyph unicode="+" horiz-adv-x="323" d="M140 363q0 13 -5.5 31t-10.5 31t-3 28.5t14 27.5q18 14 55 14q13 -2 22.5 -11t9.5 -17q3 -12 3 -47.5t11 -49.5q7 -9 35.5 -7t42.5 -4q17 -13 9 -32q-20 -19 -73 -25l-7 -4q-5 -2 -8.5 -5t-3.5 -6q0 -13 3.5 -36t4.5 -36t-3 -35q-3 -11 -21.5 -12.5t-28.5 8.5 q-21 14 -29.5 51.5t-16.5 48.5q-15 12 -28 11t-39.5 -5.5t-42.5 -1.5q-19 6 -17 20t17 19q54 20 105 26q6 2 6 7t-1 11z" />
<glyph unicode="," horiz-adv-x="146" d="M138 144q21 -15 -2.5 -114t-54.5 -117q-16 -9 -26 0t-14.5 32.5t-6.5 46.5t-3 51t-2 38q-4 35 16.5 55.5t46.5 19t46 -11.5z" />
<glyph unicode="-" horiz-adv-x="359" d="M79 326q30 0 82.5 -4.5t83 -5.5t85.5 5q7 4 15.5 1t12.5 -10q4 -19 -5.5 -32t-24 -17.5t-26.5 -10.5q-127 -36 -261 0q-8 2 -12.5 5t-4.5 5l-1 3q-4 24 13.5 42.5t42.5 18.5z" />
<glyph unicode="&#xad;" horiz-adv-x="359" d="M79 326q30 0 82.5 -4.5t83 -5.5t85.5 5q7 4 15.5 1t12.5 -10q4 -19 -5.5 -32t-24 -17.5t-26.5 -10.5q-127 -36 -261 0q-8 2 -12.5 5t-4.5 5l-1 3q-4 24 13.5 42.5t42.5 18.5z" />
<glyph unicode="." horiz-adv-x="159" d="M138 144q22 -14 21.5 -63t-30.5 -67q-38 -21 -66.5 3t-32.5 64q-3 27 8 45t29 24.5t38 4.5t33 -11z" />
<glyph unicode="/" horiz-adv-x="383" d="M182 434q10 19 26.5 59t28 64t34.5 48t52 31q29 8 49.5 -11t3.5 -50l-70 -122l-79 -138q-26 -47 -62.5 -123.5t-58.5 -142.5q-4 -18 -14 -27t-33 -19q-25 -11 -44 2.5t-14 36.5q11 51 33 106.5t42 93.5t55 99.5t51 92.5z" />
<glyph unicode="0" horiz-adv-x="435" d="M330 94q-43 -43 -91.5 -56.5t-99.5 12.5q-103 61 -118 181q-11 95 59 174.5t166 95.5q39 7 79 -13t68 -56q41 -52 41 -116.5t-28.5 -119.5t-75.5 -102zM278 182q73 101 36 161q-26 43 -59 43q-43 0 -78 -34t-40 -76q-5 -39 13.5 -75t53.5 -51q37 -22 74 32z" />
<glyph unicode="1" horiz-adv-x="164" d="M105 -1q-39 0 -55 33q-22 56 -22 120t11 143.5t11 123.5q0 21 22.5 43.5t48.5 10.5q46 -21 38 -60q-30 -155 -21 -316q2 -8 16.5 -28.5t4.5 -36.5l-15 -16q-7 -7 -16.5 -12t-22.5 -5z" />
<glyph unicode="2" horiz-adv-x="419" d="M69 31q-28 4 -32 34.5t9 47.5q26 47 99 113t94 92q4 8 -4.5 17.5t-12.5 11.5q-12 6 -38.5 6.5t-38.5 5.5q-25 12 -52.5 -4.5t-54.5 -1.5q-30 23 -18 82q6 18 20.5 26.5t27.5 8.5t33.5 -2.5t26.5 -2.5q112 0 164 -30q16 -10 35 -19.5t30.5 -28t4.5 -40.5q-18 -55 -59 -100 t-105 -93q-29 -29 -6 -29q45 -7 74.5 -8.5t52 -5t74.5 -16.5q6 0 14.5 -7.5t8.5 -15.5q4 -22 -9 -41t-32 -24q-55 -6 -93 -6t-57 2.5t-67.5 12t-88.5 15.5z" />
<glyph unicode="3" horiz-adv-x="338" d="M250 71q-51 -25 -109 -23t-107 28q-24 16 -14.5 42t34.5 33q24 8 76.5 -3.5t78.5 -1.5q5 0 14.5 6t5.5 9q-10 26 -44.5 45.5t-67 29t-52.5 31.5t-6 54q12 20 57 42t53 28q-17 10 -53.5 10t-51.5 10q-26 23 -10 54t50 31q30 -3 56 -5t55 -9.5t50 -20.5q22 -14 27.5 -31 t-5.5 -35t-24 -32t-34.5 -33.5t-29.5 -28.5q5 -3 12.5 -13t12.5 -12q40 -8 70.5 -30t40.5 -55q20 -68 -85 -120z" />
<glyph unicode="4" horiz-adv-x="368" d="M163 144q-45 0 -82.5 23t-48.5 58q-26 57 -3 133t79 114q16 10 31.5 2t18.5 -22q8 -29 -16 -85t-14 -87q8 -26 42.5 -40.5t53.5 0.5q23 18 32.5 58t10.5 76t18 67t55 36q24 -17 27.5 -44.5t-6.5 -53t-19.5 -59t-6.5 -55.5q5 -18 1.5 -36t-11 -31t-15.5 -29 q-10 -26 -14 -40.5t-7 -42t6 -43.5q2 -7 -4 -13t-17 -12.5t-15 -10.5q-28 -21 -55 16q-12 13 -6.5 56t1.5 60q0 7 -5 8t-15.5 -1t-15.5 -2z" />
<glyph unicode="5" horiz-adv-x="396" d="M363 438q13 0 22.5 -8.5t9.5 -19.5q4 -20 -11 -36t-31 -16q-157 29 -202 -61q20 -9 67.5 -18t68.5 -19q39 -10 52 -38q29 -35 5 -80q-39 -69 -106.5 -108.5t-142.5 -32.5q-30 3 -38 31.5t5 53.5q11 15 16.5 21.5t17 13.5t22.5 2q5 0 10 -14t9 -14q72 -18 132 71 q-27 29 -69 36t-94.5 7t-81.5 8q-8 4 -12 20t3 27q8 8 22 20t20 18q11 13 32 44.5t38 49.5t38 28q15 8 44 11.5t41 7.5q24 6 37.5 5t37.5 -5.5t38 -4.5z" />
<glyph unicode="6" horiz-adv-x="384" d="M233 3q-75 -12 -134.5 26.5t-77.5 105.5q-31 119 42 230t197 141q22 5 39 1t27 -12.5t8 -18t-17 -14.5q-227 -109 -216 -269q12 2 60 14t69.5 15t58.5 -3t68 -26q23 -18 21.5 -52.5t-21.5 -53.5q-51 -74 -124 -84zM235 79q17 4 23.5 6t14 7.5t9 14t-0.5 23.5 q-1 12 -11.5 17.5t-23.5 4.5t-25 -1q-31 -3 -50.5 -16t-13.5 -36q9 -38 78 -20z" />
<glyph unicode="7" horiz-adv-x="401" d="M255 501q81 25 138 -10q7 -7 8 -17t-2.5 -18t-5.5 -17l-36 -75q-25 -51 -39 -82t-27.5 -76t-15.5 -85l5 -13q4 -14 0 -17q-17 -26 -45 -42t-42 1q-20 32 -21.5 68.5t12 73.5t30.5 71l37 75q20 41 29 71q-48 0 -129 -24.5t-96 -27.5q-21 -4 -39 15.5t-7 41.5q5 14 17.5 30 t23.5 16q74 0 205 41z" />
<glyph unicode="8" horiz-adv-x="433" d="M170 7q-102 -17 -160 16q4 44 28 77.5t76.5 77.5t63.5 55q-12 16 -37 38l-43 39q-17 16 -29.5 41.5t-7.5 52.5q99 74 284 51q4 30 20.5 50t42.5 17q17 0 23 -21.5t-2 -37.5q-26 -99 -134 -205q64 -64 63 -126q-1 -31 -19 -54.5t-49 -37t-58 -20.5t-62 -13zM253 113 q21 25 9 48t-32 13q-29 -10 -41 -18t-21 -22l-24 -41q25 -18 58 -11t51 31zM227 303q26 10 41 35t0 40q-12 14 -28 14.5t-26.5 -4t-35.5 -18.5q-18 -11 4.5 -42.5t44.5 -24.5z" />
<glyph unicode="9" horiz-adv-x="304" d="M21 300q-15 53 10 99.5t76 72.5q18 9 49.5 14.5t65 6t58 -13.5t24.5 -42q-8 -66 -42.5 -195.5t-43.5 -198.5q0 -17 -17 -28t-30 -15q-15 -3 -35.5 7.5t-17.5 25.5q5 32 45 177q12 42 7 42q-51 -30 -91 -21.5t-58 69.5zM155 330q15 9 40 42t11 40q-32 12 -65.5 -10 t-37.5 -55q-1 -21 16 -25.5t36 8.5z" />
<glyph unicode=":" horiz-adv-x="159" d="M138 144q22 -14 21 -63t-30 -67q-38 -21 -66.5 3t-33.5 64q-4 35 16.5 55.5t46.5 19t46 -11.5zM138 441q22 -13 20.5 -56.5t-31.5 -61.5q-42 -19 -67.5 -1t-30.5 57q-4 35 16.5 55.5t46.5 18.5t46 -12z" />
<glyph unicode=";" horiz-adv-x="157" d="M137 144q21 -15 -2.5 -114t-54.5 -117q-16 -9 -26 0t-14.5 32.5t-6.5 46.5t-3 51t-2 38q-4 35 16.5 55.5t46.5 19t46 -11.5zM137 441q22 -13 20.5 -56.5t-31.5 -61.5q-42 -19 -67.5 -1t-30.5 57q-4 35 16.5 55.5t46.5 18.5t46 -12z" />
<glyph unicode="&#x3c;" horiz-adv-x="457" d="M362 543q32 0 46 -21.5t-3 -39.5q-29 -32 -83.5 -54.5t-104.5 -46.5t-76 -64q42 -25 91.5 -48.5t111 -50t94.5 -42.5q19 -11 19 -29q3 -31 -28.5 -49t-61.5 -7q-7 5 -18 15.5t-15 12.5q-122 68 -282 137q-4 2 -17.5 6.5t-23 11.5t-11.5 19q0 44 38 80q46 37 151 84 t150 86q2 2 5.5 2t9 -1t8.5 -1z" />
<glyph unicode="=" horiz-adv-x="274" d="M234 451q28 5 38 -21q13 -39 -38 -53q-96 -35 -180 -5q-13 5 -23.5 21t-2.5 27q16 31 49 36t82.5 -1.5t74.5 -3.5zM166 262q11 -9 38.5 5.5t40.5 -0.5q6 -3 10 5t6 6q15 -16 10.5 -33t-21.5 -25q-29 -30 -71.5 -41.5t-84 3t-61.5 54.5q-7 22 9.5 40.5t38.5 22.5 q37 0 85 -37z" />
<glyph unicode="&#x3e;" horiz-adv-x="387" d="M170 510q124 -41 200 -113q16 -12 16 -27.5t-10.5 -27.5t-27.5 -23q-46 -29 -133 -99t-140 -101q-27 -15 -47.5 7t-0.5 45q12 20 56 44q30 15 78 53.5t66 50.5q14 5 31 15.5t12 19.5q-19 33 -55.5 52.5t-72 25.5t-75 22t-62.5 43q-7 10 8 29t31 19q20 4 41 -1.5t48 -18 t37 -15.5z" />
<glyph unicode="?" horiz-adv-x="330" d="M96 159q-41 28 -59 79t-4 96q9 27 35.5 47t54.5 30.5t57 32t42 50.5q-32 17 -99.5 38.5t-99.5 38.5q-17 8 -13 30t23 33q50 10 73 0q18 -7 64 -23t78.5 -31.5t61.5 -37.5q26 -26 19 -39q-10 -40 -44.5 -71t-77.5 -60.5t-62 -57.5q-13 -19 -4 -51t18 -55t-10 -49 q-7 -7 -24.5 -7t-28.5 7zM62 77q14 9 58 9q21 -3 29.5 -19t-0.5 -34q-10 -22 -39 -30t-48 6q-21 15 -21.5 34t21.5 34z" />
<glyph unicode="@" horiz-adv-x="502" d="M166 14q-20 7 -38.5 19t-33 24.5l-30.5 27.5l-29 29q-7 11 -18 48q-12 52 0 96q63 220 170 327q67 67 175 52q44 -6 75.5 -32t45 -62.5t19 -78.5t-4.5 -79q-5 -23 -22.5 -37.5t-42 -26.5t-35.5 -23q-10 -8 -15.5 -44t-11.5 -48q-15 -35 -52.5 -60t-80 -25t-67.5 33 q-24 33 -9 100q17 75 55.5 129t97.5 54q10 0 20 -4.5t18.5 -11.5t17 -16.5t16.5 -20.5l15 -21q8 -7 14.5 -1t11.5 18q24 68 -13 149q-22 47 -77 50t-89 -33q-124 -124 -148 -331q-6 -52 29 -91.5t89 -61.5q32 -13 61 4q5 -7 12 -6.5t14 4.5t11 3.5t2 -9.5q-2 -33 -29 -47 t-59.5 -11.5t-63.5 14.5zM244 236q-4 -34 9 -43q10 -10 20 -4t15 12.5t8 13.5q40 71 9 126q-56 -48 -61 -105z" />
<glyph unicode="A" horiz-adv-x="402" d="M121 443q5 16 19.5 83.5t35.5 96.5q8 12 33.5 16t33.5 -11q33 -71 60 -176t44 -185q0 -7 13.5 -14t17.5 -13q10 -17 0 -27q-17 -37 5 -98t18 -87q-3 -21 -32.5 -26.5t-44.5 13.5q-14 19 -22.5 76t-35.5 73q-28 16 -66 11.5t-65 -25.5q-12 -9 -20 -32.5t-11.5 -46 t-13 -43.5t-25 -25.5t-47.5 7.5q-6 28 -0.5 58t19 68.5t17.5 58.5q31 141 67 248zM176 353q-2 -13 -9 -32.5t-12.5 -32t-6.5 -26.5t9 -17q17 -12 53 -10t42 23q8 29 2 63t-20 62l-27 60q-23 -28 -31 -90z" />
<glyph unicode="B" horiz-adv-x="397" d="M78 447q-5 21 -1 41t1.5 40.5t-17.5 29.5q-4 3 -19 4.5t-20 8.5q-14 23 2 45.5t32 22.5q39 3 92.5 0.5t86.5 -21.5q9 -5 65 -25t76 -48q9 -18 4 -30l-38 -33l-46 -39q-21 -17 -44 -30q-5 0 -12.5 -7t0.5 -10q56 -11 98.5 -38t54.5 -68q21 -73 -68 -162 q-58 -58 -109 -91.5t-108 -36.5q-16 -1 -29.5 10t-5.5 28q4 8 19.5 23t15.5 20q4 35 1 76.5t-9.5 76.5t-13.5 77q-1 7 -6 19.5t-8 21.5t-2.5 21.5t8.5 22.5q9 11 0 51zM163 511q-1 -8 2.5 -25t1.5 -26q31 -3 57 14.5t33 40.5q4 8 -4.5 13.5t-27 11.5t-24.5 9 q-17 9 -25.5 -3.5t-12.5 -34.5zM188 217q1 -8 3.5 -31t5.5 -38t9 -29q24 22 48.5 40t39.5 45t9 56q-4 21 -29 39.5t-50.5 22.5t-43.5 -11q-5 -17 -4.5 -26t6 -33t6.5 -35z" />
<glyph unicode="C" horiz-adv-x="450" d="M12 257q12 83 56.5 143.5t122.5 78.5q61 14 145 -10q18 -6 31 -22.5t2 -35.5q-6 -11 -15 -16t-25 -8t-22 -5q-20 -6 -57 2t-52 3q-57 -20 -77 -77.5t-1 -118.5t77 -89.5t119 -8.5q9 3 24 13l26 16q11 6 25.5 10t22.5 -4q27 -22 33.5 -43t-16.5 -41q-97 -71 -250 -24 q-75 24 -111 53q-74 62 -58 184z" />
<glyph unicode="D" horiz-adv-x="380" d="M77 51q-20 7 -34 26t-8 37q3 4 18 15.5t16 21.5q3 119 -22 349q0 7 -12 21.5t-13 16.5q-2 2 -2 6t1 9t1 6q5 23 26 30.5t42 3.5q70 0 122 -34q74 -50 128 -123q48 -69 39 -141.5t-55 -133.5t-112 -93q-75 -39 -135 -17zM158 134q26 -5 52 12t41 40q12 18 18.5 29.5 t15.5 30t12.5 32.5t3.5 31.5t-6 33.5q-18 52 -60 94t-96 48q0 -47 6.5 -199t12.5 -152z" />
<glyph unicode="E" horiz-adv-x="359" d="M38 381q0 15 -6 45.5t-6 53.5t12 40q42 61 126 68.5t146 -41.5q14 -10 3 -28.5t-35 -22.5q-17 -2 -59.5 9t-65.5 1q-22 -10 -25.5 -37t2 -53.5t-4.5 -52.5q19 -11 48.5 -11.5t52.5 3t45.5 -6t33.5 -36.5q-16 -28 -49 -33t-67.5 -6t-49.5 -17q-20 -21 -18 -69.5t9 -86.5 q33 -6 67.5 3t76 27.5t64.5 24.5q3 3 18 -9q7 -24 -2 -43t-30 -27q-46 -20 -107 -41.5t-110 -18.5q-7 1 -23.5 1.5t-25.5 4t-11 13.5q-12 38 -8.5 110.5t-5.5 110.5q-1 5 -8.5 16t-9 17t3.5 18q0 3 8 9q4 3 6 5q6 12 6 30.5t-1 29.5z" />
<glyph unicode="F" horiz-adv-x="348" d="M56 411q-28 110 -23 183q0 8 6 17.5t12 9.5q68 24 143.5 18t139.5 -41q39 -20 -22 -59q-33 -15 -88.5 8t-81.5 19q-8 -55 7 -129.5t30 -126.5q13 -1 45.5 2.5t55.5 5t42 -8.5t18 -34q-1 -21 -30.5 -26t-63 -7.5t-40.5 -17.5q-10 -15 -5.5 -39.5t12.5 -41.5l19 -43 q12 -25 16 -41q8 -23 -6.5 -40t-35.5 -18t-36 8q-28 28 -43 102.5t-39 102.5q-5 5 -10.5 3.5t-17 -3.5t-18.5 0q-15 4 -23.5 15.5t0.5 26.5q6 8 29 21.5t26 23.5q4 9 2 27.5t-4 27.5l-8 28q-6 18 -8 27z" />
<glyph unicode="G" horiz-adv-x="394" d="M28 132q-22 115 3 214t112 160q56 38 117 37t113 -37q15 -12 11 -26t-20 -22q-21 -14 -72 -4t-72 4q-20 -5 -36.5 -23.5t-24 -34.5t-16.5 -42q-20 -53 -26.5 -102.5t10 -99.5t64.5 -72q17 -8 36 -4t26 18q4 9 9.5 18.5t9 19.5t5 18.5t-2 17t-11.5 13.5q-29 15 -29 19 q-16 25 3.5 42t49.5 25q43 13 82 -10t19 -67q0 -2 -10 -6.5t-10 -7.5q0 -20 -9 -54t-10 -42q-2 -14 -21 -31.5t-22 -21.5q-11 -8 -33 -11.5t-29 -7.5q-68 -29 -135 7.5t-81 112.5z" />
<glyph unicode="H" horiz-adv-x="392" d="M32 263q-1 6 -5 21.5t-3 21.5q1 7 6 25.5t7 28.5q1 22 -3 74t-1 88.5t20 66.5q10 17 37 20t52 -9q27 -23 24 -45q-3 -17 -11.5 -49.5t-13 -53.5t-3.5 -47.5t12 -46.5q11 -15 47 -21t44 11q15 41 13.5 117t3.5 122q4 23 25.5 33t43 6t27.5 -18q15 -56 14 -90t-7.5 -94 t-4.5 -94q1 -7 16 -23.5t17 -27.5q1 -9 -9.5 -19.5t-11.5 -13.5q-10 -50 7 -144t17 -127q-39 -8 -64 6.5t-36 47.5t-16.5 67.5t-11.5 77t-15 65.5q-7 20 -29 26t-42 1.5t-24 -12.5q-22 -23 -7.5 -108t1.5 -122q-38 -1 -62 14.5t-33.5 45t-12.5 57t-4 66t-4 56.5z" />
<glyph unicode="I" horiz-adv-x="161" d="M29 173q-2 72 -1.5 174.5t12.5 179.5q6 40 39 51.5t70 -13.5q17 -17 11 -29q-25 -71 -29 -151t2.5 -181.5t4.5 -151.5q-1 -11 -23 -15t-42 6q-17 8 -27.5 23.5t-13 32.5t-3.5 37t0 37z" />
<glyph unicode="J" horiz-adv-x="383" d="M16 207q0 63 14 87q31 32 73 24q22 -4 27.5 -28t-8.5 -49q-8 -15 -10.5 -38t7 -46.5t32.5 -31.5q21 -9 46 -3t31 27q20 60 13 130.5t-30 129.5t-45 127q-7 20 4 39q7 13 32 16.5t31 12.5q6 -6 25 -10t19 -14q5 -40 19 -92l26 -94q13 -43 22 -89.5t6.5 -92.5t-20.5 -87 q-46 -105 -232 -73q-28 5 -45.5 20t-25 40t-9.5 45t-2 50z" />
<glyph unicode="K" horiz-adv-x="349" d="M34 242q-19 142 -19 352q0 17 19.5 31t41.5 15q29 1 40 -17t7.5 -44t-3.5 -54t6 -47q9 -20 47 14q16 10 46.5 40.5t50.5 38.5q20 7 45.5 -11.5t18.5 -35.5q-23 -40 -95 -80.5t-90 -57.5q-6 -6 3.5 -23t27.5 -40t22 -30q10 -11 52 -50.5t64 -68.5t30 -61 q5 -18 -29.5 -31.5t-58.5 4.5q-24 20 -76 88l-55 71q-11 -55 27 -203q4 -13 3 -34t-7 -30q-10 -21 -29.5 -26.5t-40.5 5.5q-8 3 -15.5 12.5t-7.5 19.5q0 61 -25 253z" />
<glyph unicode="L" horiz-adv-x="430" d="M20 182q0 206 39 420q6 30 49 35t48 -28q9 -54 2.5 -123t-18 -124t-16 -125.5t9.5 -126.5q50 0 70 0.5t61 6.5t67 19q35 25 62 12q48 -48 34 -63q-31 -36 -80 -50t-94 -11.5t-102.5 -1.5t-97.5 -22q-22 14 -31.5 37.5t-9.5 43.5t3.5 53t3.5 48z" />
<glyph unicode="M" horiz-adv-x="602" d="M557 0q-41 -8 -49 0q-29 57 -41 135t-22 157.5t-34 135.5q-21 -34 -45 -104.5t-38 -99.5q-2 -5 0 -17t0 -17q-12 -24 -35.5 -37t-47.5 -2q-15 4 -27 17t-12 27q-11 100 -44 112q-11 4 -12.5 -8.5t1 -29.5t-2.5 -30q-9 -13 -6 -63.5t1 -63.5q-4 -28 -47 -36t-60 12 q-19 20 -21.5 50t4.5 56l17 63q11 37 14 59q7 49 15 146.5t15 146.5q4 28 40.5 31t46.5 -17q24 -33 38.5 -73.5t27.5 -96t22 -83.5l5 -6q6 -6 9 -8.5t5 -0.5q14 20 28 53t23.5 62t24.5 59t31 50t42.5 29t60.5 1q32 -93 60 -281.5t57 -278.5q6 -17 -8.5 -31t-35.5 -18z" />
<glyph unicode="N" horiz-adv-x="339" d="M31 64q-8 9 -8 21q6 47 11.5 186t21.5 216q3 14 29 14t36 -10q31 -41 64 -137.5t64 -137.5q7 19 9 37.5t0.5 48.5t-1.5 37q0 32 -18 111.5t-11 122.5q3 21 35 24t39 -16q10 -25 17 -52.5t10.5 -53.5t6 -55t3 -56t0.5 -56v-55q0 -103 -41 -144q-13 -15 -37 -16.5t-37 12.5 q-25 29 -51.5 77.5t-42.5 82.5q-13 -35 -11 -98.5t-6 -98.5q-5 -19 -34 -21.5t-48 17.5z" />
<glyph unicode="O" horiz-adv-x="404" d="M27 284q20 70 77.5 125t126 62t130.5 -67q57 -77 39 -169t-94 -143q-50 -34 -103 -35.5t-99 30.5q-47 35 -69.5 88t-7.5 109zM131 223q10 -45 35.5 -72t63.5 -10q47 22 65.5 71.5t5.5 103.5q-7 27 -39 38.5t-60 5.5q-24 -4 -50 -58t-21 -79z" />
<glyph unicode="P" horiz-adv-x="475" d="M31 412q1 9 1.5 19.5t1.5 20.5t3 20.5t4.5 20t7 19t9.5 17.5q-5 2 -18.5 5t-19.5 6q-15 17 -9.5 41.5t20.5 30.5q115 46 238 17.5t205 -122.5q6 -54 -13.5 -99t-56 -74t-83.5 -54.5t-95 -40.5t-90 -32q-3 -26 7 -77.5t4 -77.5q-9 -26 -36 -42t-58 -8q-5 3 -22 23 q-20 156 0 387zM141 435q0 -12 -6 -41.5t-4.5 -47t16.5 -22.5q58 -20 128.5 25.5t87.5 112.5q-42 32 -71 50t-73 30.5t-83 2.5q-2 0 10 -11.5t12 -21.5q0 -14 -8.5 -39t-8.5 -38z" />
<glyph unicode="Q" horiz-adv-x="423" d="M126 181q-60 54 -83 87q-10 15 -24 73q-17 66 34 152q13 17 31 31.5t43.5 30.5t37.5 25q11 11 27 18.5t38 14t33 11.5q57 28 87 5q22 -15 24 -41.5t-28 -31.5q28 -54 45 -98t28 -98.5t-2.5 -104t-51.5 -89.5q4 -11 7 -22l8 -23q3 -11 5 -23.5t2.5 -23.5t-1 -22.5 t-6.5 -22.5q-4 -15 -21.5 -24t-32.5 0q-22 16 -29.5 63.5t-24.5 58.5q-16 9 -68.5 20.5t-77.5 33.5zM170 254l2 -2q48 -51 71 -28q6 5 5 9.5t-5.5 14.5t-4.5 15q0 13 1 20t6.5 16t17.5 13q7 3 13.5 3t12.5 -1.5t11.5 -4.5t10.5 -7l10 -10q5 -4 10 -9q18 65 -6.5 130.5 t-76.5 98.5q-30 19 -64 -3t-54.5 -64.5t-17.5 -78.5q4 -58 58 -112z" />
<glyph unicode="R" horiz-adv-x="410" d="M23 325q0 25 19 100.5t5 111.5q-1 3 -4 14.5t-3.5 17.5t-1 15t3 15t10.5 10q92 51 191 17.5t155 -123.5q47 -74 -96 -168q33 -176 96 -298q11 -21 -21.5 -33t-50.5 4q-37 31 -55 84t-33.5 110t-45.5 90q-10 12 -38 10.5t-35 -15.5q-14 -45 4.5 -130.5t19.5 -105.5 q1 -14 -22 -23.5t-45 -5.5q-18 6 -29 29q-21 56 -24.5 135.5t0.5 138.5zM139 455q-4 -13 -10 -27.5t-6 -28t11 -16.5q43 -10 89 2t79 41q11 5 18.5 15t0.5 19q-36 75 -144 87q-17 2 -24 -13.5t-9.5 -43t-4.5 -35.5z" />
<glyph unicode="S" horiz-adv-x="441" d="M45 421q-5 7 -14 16.5t-14 15.5t-9 14t-2.5 15t7.5 15q25 31 57.5 53t72 35t73 21t81.5 17t76 16q20 5 39 -5.5t26 -27.5q8 -18 -7.5 -33.5t-35.5 -20.5q-32 -12 -111 -23t-118 -32q-23 -13 -17 -27q19 -28 51 -57t63 -49t64.5 -46.5t53.5 -50t31.5 -58t-1.5 -72.5 q-14 -51 -56.5 -84.5t-96.5 -45t-112.5 -6.5t-105.5 27q-39 20 -26 61t53 59q16 3 28.5 -17t20.5 -22q6 -1 29.5 -3t36.5 -8q28 -13 62 -2.5t58 24.5q32 25 11 66q-38 49 -133.5 117t-134.5 118z" />
<glyph unicode="T" horiz-adv-x="432" d="M177 2q-16 -6 -27 5t-12 24q-5 90 12 257.5t17 239.5q0 15 -19 11t-30 -11q-6 -1 -40.5 -16.5t-51.5 -7.5q-25 11 -23 38t28 40q54 27 101.5 40t87 14t89 1t106.5 2q3 0 9 -9l5 -10q7 -21 -6 -38.5t-37 -25.5q-40 -8 -56 -8t-51 -1q-36 -176 -44 -496q0 -25 -58 -49z" />
<glyph unicode="U" horiz-adv-x="480" d="M116 71q-53 56 -76.5 132.5t-19.5 152t28 154.5q9 28 39 42t60 0q21 -23 15 -47q-27 -62 -34 -133.5t15.5 -139t75.5 -99.5q32 -17 57 -10t43.5 34t29.5 58t15 63q9 57 8 88t-7 87.5t-6 87.5q-1 11 4.5 19.5t11 13.5t23.5 10l22 8q5 1 27 6q0 -8 10 -12t10 -8 q12 -87 13.5 -151.5t-16 -141t-59.5 -137.5q-32 -46 -84 -78.5t-107.5 -37t-97.5 38.5z" />
<glyph unicode="V" horiz-adv-x="407" d="M214 0q-35 0 -39 15q-9 31 -38 78t-36 69q-10 31 -37.5 95.5t-41 115t-9.5 98.5q3 13 21.5 28t37.5 17.5t29 -15.5q15 -33 41.5 -141t62.5 -159q32 71 61 213t47 195q5 15 29.5 25t46 3.5t17.5 -33.5q-21 -141 -88 -383q-23 -77 -40 -187q-4 -14 -22.5 -24t-41.5 -10z " />
<glyph unicode="W" horiz-adv-x="609" d="M111 59q-62 84 -83 192t-1 216q9 30 42 44t52 -12q16 -25 16 -60.5t-6.5 -65.5t1.5 -68q3 -12 6.5 -34.5t6.5 -35.5t10.5 -30.5t18.5 -30.5q27 30 54.5 101t49.5 98q26 31 53 31.5t49 -24t38.5 -54.5t27.5 -63q0 -8 8.5 -21.5t12.5 -9.5q25 30 32 71t1 77.5t-7.5 80.5 t5.5 80q8 16 32.5 26.5t40.5 -0.5q20 -16 29 -42t9 -46t-3 -55t-3 -51q0 -94 -42 -204q-26 -49 -42 -62q-21 -17 -41 -18.5t-36.5 10t-29.5 28t-24 37.5q-38 75 -63 110q-14 -19 -31 -55t-32 -64.5t-35 -55.5t-49.5 -38t-66.5 -2z" />
<glyph unicode="X" horiz-adv-x="497" d="M18 119q-11 3 -13 18.5t3 22.5q23 24 66.5 52.5t78.5 57t53 63.5q-32 38 -84 115t-83 114q-18 22 -4 45t39.5 29.5t42.5 -1.5q35 -25 63.5 -64t59 -92t49.5 -79q21 13 52.5 49.5t52.5 49.5q49 25 88 6q14 -14 6 -32q-17 -33 -72.5 -76.5t-73.5 -69.5q15 -26 50 -81 l58 -98q24 -42 43 -81q4 -8 4.5 -14.5t-3 -12.5t-6.5 -10.5t-11 -10t-12 -8t-14 -7.5q-15 -8 -32 -1.5t-25 22.5q-36 93 -136 224q-23 -13 -56 -41l-57 -50q-24 -22 -58.5 -35t-68.5 -4z" />
<glyph unicode="Y" horiz-adv-x="361" d="M92 -61q-17 7 -20 27t2 36q4 26 33.5 117.5t24.5 133.5q-7 53 -60.5 170t-60.5 174q-3 23 28.5 37.5t47.5 -0.5q24 -21 38 -68l27 -98q14 -51 34 -75q16 21 41.5 109.5t58.5 112.5q24 19 53.5 9t19.5 -36q-82 -203 -114 -272q-14 -42 13 -77q9 -9 -4 -41q-5 -4 -25 -11 t-25 -20q-39 -179 -48 -210q-4 -12 -21.5 -19.5t-42.5 1.5z" />
<glyph unicode="Z" horiz-adv-x="538" d="M129 5q-8 0 -31 -2.5t-36 -2.5t-27.5 9.5t-20.5 29.5q0 30 34 52q45 36 92.5 79.5t87 84t69.5 93.5t41 108q2 13 -11 18.5t-36.5 8.5t-33.5 8q-39 16 -126.5 11t-116.5 17q-24 17 -6 46t46 35q33 8 67 9.5t71.5 -3.5t64.5 -10t71.5 -15.5t66.5 -14.5q75 -26 70 -70 q-7 -56 -37.5 -114.5t-60 -93.5t-86.5 -95t-77 -84q70 -8 152.5 1.5t151.5 -7.5q25 -8 29 -31t-11.5 -42.5t-40.5 -19.5q-83 0 -177.5 -2.5t-178.5 -2.5z" />
<glyph unicode="[" horiz-adv-x="521" d="M501 586q23 -13 19.5 -31t-24.5 -33.5t-40 -14.5q-36 1 -117 14.5t-126 13.5q-14 -156 -74 -384q-2 -12 -0.5 -27t12.5 -18q115 -17 226 17q22 3 28 -22t0 -46q-5 -10 -17 -17.5t-23.5 -10.5t-21.5 -6q-190 -51 -322 22q-3 0 -7 14t-10 20q22 24 22 40q36 117 62 271 q6 35 -1.5 107.5t1.5 107.5q60 30 135 35.5t144 -9t134 -43.5z" />
<glyph unicode="\" horiz-adv-x="413" d="M310 209q4 -7 44.5 -66t52.5 -90q13 -34 -2 -47.5t-40.5 -6.5t-39.5 25q-67 80 -119.5 162t-91.5 161l-96 188q-21 31 -17.5 59.5t36.5 38.5q9 1 22 3.5t19.5 3.5t11.5 -3.5t6 -15.5q21 -70 58 -145.5t75 -135.5z" />
<glyph unicode="]" horiz-adv-x="443" d="M314 623q26 3 50 3t48 -6t28.5 -22t-8.5 -43q-90 -149 -45 -399q5 -18 12.5 -34.5t7 -36.5t-13.5 -35q-17 -17 -34 -17q-28 -3 -74.5 -13t-78 -16t-72 -4.5t-73.5 16.5q-31 17 -25 41t31 37q27 15 95.5 13t95.5 16q12 7 12.5 23.5t-6 41.5t-6.5 36q-2 49 14.5 151.5 t13.5 157.5q-42 -3 -122.5 1t-102.5 4q-17 0 -33.5 18t-16.5 38q3 23 24 33.5t43 11.5q36 2 115 -10t121 -6z" />
<glyph unicode="^" horiz-adv-x="311" d="M187 640q14 0 20 -3q10 -13 56.5 -119t47.5 -114q-4 0 -9.5 -8t-10.5 -6q-5 3 -27.5 5.5t-24.5 6.5q-27 67 -61 113q-14 -26 -27.5 -44.5t-28.5 -32.5l-37 -38q-11 -8 -27 -7.5t-29 6.5q-21 9 -3 34l76 105q39 55 65 102h20z" />
<glyph unicode="_" />
<glyph unicode="`" horiz-adv-x="165" d="M144 568q9 -35 16 -59.5t3.5 -39t-22.5 -16.5q-11 -1 -20.5 4.5t-14.5 11.5t-13 19l-62 88q-16 25 8.5 46t51.5 18q35 -4 53 -72z" />
<glyph unicode="a" horiz-adv-x="354" d="M258 -21q-8 5 -16.5 20.5t-15.5 15.5l-42 6q-29 4 -45.5 7.5t-38.5 10.5t-38 20t-27 32q-19 29 -15 71.5t24 68.5q28 37 68.5 57t73 22t57.5 0l25 -1q8 10 8 35t-15 28q-37 8 -76.5 -4.5t-72.5 -27.5q-26 -9 -38 28.5t-2 47.5q38 26 90 39t103.5 0.5t72.5 -56.5 q14 -29 15.5 -64.5t-5.5 -63.5l-14 -67q-9 -40 -11 -68q-1 -10 -1.5 -22.5t-1.5 -25.5l-4 -28q-1 -14 -3.5 -27t-6 -24t-8 -19.5t-10.5 -13t-13.5 -4t-16.5 6.5zM240 100q3 14 9 35l9 34q4 13 3.5 31.5t-8.5 37.5q-16 -6 -48.5 -11.5t-54 -10t-39.5 -22t-19 -47.5 q0 -20 36.5 -36t69.5 -17t42 6z" />
<glyph unicode="b" horiz-adv-x="401" d="M76 3q-13 3 -26 32q-4 33 -6.5 128.5t-14.5 148.5q-1 3 -7.5 16t-8.5 23t0 19q3 5 11 13t10 13q2 22 -0.5 94.5t5.5 94.5q6 27 32.5 46t46.5 -4q19 -20 20.5 -48t-7 -54t-10 -57t11.5 -56q59 -3 109.5 -18t93 -49.5t59.5 -84.5q16 -45 -7.5 -94t-65.5 -79 q-66 -47 -125.5 -71t-120.5 -13zM149 103q59 4 109 37t48 83q-1 32 -31.5 59t-72.5 39t-79 7q0 -152 26 -225z" />
<glyph unicode="c" horiz-adv-x="378" d="M14 260q16 95 83 154q13 13 29 26l31 26q15 13 33 23t35 15.5t36.5 5t37.5 -8.5q23 -10 13 -39q-9 -27 -28.5 -41.5t-49.5 -26.5t-47 -24q-74 -57 -78 -120q-4 -56 21 -93q13 -21 40.5 -32.5t51.5 -17.5q23 -9 46 4t46 31t40 19q15 1 20.5 -8t2.5 -23t-7.5 -25.5 t-9.5 -19.5q-59 -90 -220 -44q-69 20 -103.5 82t-22.5 137z" />
<glyph unicode="d" horiz-adv-x="370" d="M14 224q0 56 38 91t104 65.5t89 49.5q13 11 18 52t11 54q11 19 30.5 30t36.5 4q34 -17 29 -39q-75 -204 -24 -500q0 -7 -14 -15.5t-25 -8.5q-19 -2 -30 12.5t-19.5 31.5t-17.5 19q-25 -3 -58.5 -2.5t-56.5 16.5q-18 11 -38 25.5t-36 29.5t-26.5 37t-10.5 48zM115 238 q6 -38 41.5 -64.5t73.5 -12.5q-5 33 2.5 90.5t7.5 77.5q-48 0 -90 -24.5t-35 -66.5z" />
<glyph unicode="e" horiz-adv-x="339" d="M22 282q-2 75 47 121t122 36q60 -8 104.5 -58t43.5 -112q-9 -28 -82.5 -71.5t-83.5 -53.5q-5 -1 -12.5 -8t-3.5 -13q12 -22 30 -31t40.5 -5t41 11t43.5 20q26 -20 16.5 -53.5t-40.5 -38.5q-25 -3 -46.5 -7t-47.5 -2.5t-48 11.5q-120 54 -124 254zM131 231q90 4 108 63 q16 35 -26 53.5t-75 1.5q-20 -11 -26.5 -39.5t0.5 -53t19 -25.5z" />
<glyph unicode="f" horiz-adv-x="359" d="M35 410q9 81 78 146q26 25 63 41t73.5 19t67.5 -15.5t42 -59.5q2 -14 -8.5 -24.5t-23.5 -8.5q-12 1 -40 8t-39.5 7.5t-41.5 -5.5q-41 -14 -63 -44.5t-24.5 -68t5.5 -75t25 -73.5q6 1 76.5 31.5t95.5 22.5q14 -1 19.5 -15t-0.5 -28q-7 -18 -44.5 -33.5t-72.5 -28.5 t-37 -26q-5 -24 27 -63.5t37 -55.5q9 -18 -19.5 -29t-48.5 -3q-25 16 -50 61.5t-47 58.5q-3 1 -23 0t-31 2q-10 -1 -15 11t-3 24q4 7 24.5 19t19.5 27q-1 19 -13 81.5t-9 96.5z" />
<glyph unicode="g" horiz-adv-x="327" d="M68 425q34 29 73 46t83 20.5t83 -17.5q24 -12 20 -30q-19 -39 -28.5 -81.5t-10 -91t1.5 -83t8.5 -93t8.5 -85.5q5 -51 -3 -86.5t-42 -54.5q-59 -34 -131 -7.5t-94 91.5q-9 27 18.5 41.5t42.5 -3.5q5 -5 27.5 -32.5t41 -39t42.5 -8.5q7 2 19 27q9 30 6 86.5t-7.5 86 t-14.5 86.5q0 2 1 8q5 22 -2 21l-6 -3q-65 -39 -114 -19q-30 12 -57 61q-19 42 -10.5 86t44.5 74zM132 398q-36 -31 -30 -72q10 -69 38 -69q17 -1 28.5 10t24.5 39.5t16 34.5q9 15 10.5 38.5t-7.5 37.5q-6 12 -21.5 9.5t-30.5 -10t-28 -18.5z" />
<glyph unicode="h" horiz-adv-x="338" d="M36 296q3 23 -1.5 61t-3.5 70.5t14 56.5q6 16 27 22.5t43 -2.5q13 -8 13 -41q-4 -40 -8.5 -75t-3 -75t11.5 -75q31 55 73.5 86.5t92.5 9.5l26 -110q7 -33 14 -94t2 -109q-1 -18 -29.5 -25.5t-41.5 5.5q-23 28 -25.5 71t-2.5 90.5t-17 79.5q-62 -62 -109 -162 q-6 -10 -23.5 -17t-30.5 -4q-2 1 -8.5 2.5t-11.5 2.5t-9 4t-4 7q0 109 12 221z" />
<glyph unicode="i" d="M42 253q0 79 18 114q10 19 33 25.5t45 -3.5q16 -7 24 -20.5t-2 -27.5q-18 -25 -20 -70t-6 -57q-9 -23 -1.5 -70t1.5 -70q0 -3 -3 -8t-6 -5q-67 -19 -79 18q-8 26 -9 54.5t2 66t3 53.5zM67 479q-11 16 -4.5 40.5t18.5 32.5q23 14 50 12t40 -21q12 -18 0.5 -45.5 t-27.5 -36.5q-17 -10 -38.5 -5.5t-38.5 23.5z" />
<glyph unicode="j" horiz-adv-x="194" d="M40 526q-25 49 5 76q21 19 50 19t44 -23q15 -21 12 -49.5t-23 -42.5q-24 -17 -49 -12t-39 32zM71 433q6 19 40.5 18.5t43.5 -26.5q2 -12 -4 -36t-4 -36q1 -28 6 -83.5t7.5 -89.5t0 -83.5t-13 -84t-35 -72t-61.5 -64.5q-36 -28 -88 -13.5t-68 61.5q-7 20 4.5 35t31.5 21 q14 4 23 -3t16.5 -21.5t12.5 -19.5q16 -8 24 -8q28 19 44 53t20 58t8 69q4 42 -5.5 108.5t-14 108.5t11.5 108z" />
<glyph unicode="k" horiz-adv-x="378" d="M21 394q2 27 -3.5 74t-7 74t10.5 68q7 17 32 25.5t49 1.5q13 -13 13 -22q0 -41 -5.5 -139.5t-3.5 -153.5q2 -4 6.5 -5t10.5 0l6 1q7 5 28.5 22.5t32.5 24.5t29.5 15t36 5.5t35.5 -13.5q17 -12 10.5 -27t-23.5 -23q-7 -5 -46.5 -27t-57.5 -40q66 -50 198 -171 q18 -23 -13 -45q-13 -17 -35.5 -18t-32.5 13q-22 22 -47 44l-61 50l-50 41l-9 4q-7 0 -4 -13q-3 -20 4 -63t5 -63q-2 -18 -19.5 -27t-35.5 -7t-22 12q-23 54 -31.5 126.5t-7 119.5t7.5 136z" />
<glyph unicode="l" horiz-adv-x="198" d="M57 368q1 25 -4.5 61t-10.5 63.5t-3.5 59.5t13.5 56q9 19 32 28t43.5 -0.5t22.5 -37.5q1 -5 -2 -20.5t-3 -19.5q0 -23 1 -67t1 -80t-2 -67q-2 -36 2.5 -103.5t1 -119.5t-23.5 -96q-10 -22 -33.5 -25t-44.5 10q-11 7 -15.5 23.5t0.5 31.5q13 45 18 91.5t5.5 117t1.5 94.5z " />
<glyph unicode="m" horiz-adv-x="606" d="M19 296q-7 58 14.5 96.5t75.5 22.5q20 -6 25.5 -22.5t0.5 -36t-5.5 -40.5t8.5 -35q15 14 31 40.5t26.5 47.5t28 42t36.5 24.5t52 -5.5q15 -15 20 -19q4 -16 8 -55.5t12 -59.5q8 8 22 24l22 28q10 11 24 25t27 21.5t28 14t31.5 5.5t34.5 -8q11 -7 15 -19t4 -31t1 -25 q29 -213 -25 -353q-7 -25 -38 -30t-57 11q-4 0 -6 11.5t1 22.5q46 125 20 298q-1 10 -11 4.5t-14 -14.5q-50 -83 -94 -203q-13 -26 -48.5 -36.5t-55.5 16.5q-15 31 -4 101t-1 107q-17 -29 -48.5 -100.5t-55.5 -107.5q-16 -22 -48.5 -22t-41.5 22q-16 40 -14 115.5t-1 122.5z " />
<glyph unicode="n" horiz-adv-x="360" d="M44 217q0 16 -3 53.5t-2 64t9 47.5q9 23 40.5 21.5t38.5 -26.5q4 -14 -2.5 -40t-6.5 -36q2 -2 5.5 -8.5t3.5 -3.5q2 3 9 16l10 17q3 5 10.5 16t11.5 15t11.5 12.5t13.5 11.5l15 7q8 5 16 5.5t17.5 0t20.5 -3.5q25 -41 37.5 -95t13.5 -102t4 -103q10 -44 -13 -51 q-64 -17 -68 9q-6 38 -9 120t-12 125q-28 -31 -55 -102.5t-42 -96.5q-12 -20 -36.5 -21t-33.5 21q-6 17 -7 37.5t1 49t2 40.5z" />
<glyph unicode="o" horiz-adv-x="282" d="M106 131q-50 30 -71 86t-4 114q9 33 35 69.5t29 43.5q20 38 60.5 34t71.5 -38q33 -38 49 -98q27 -101 -69 -202q-16 -17 -48.5 -19t-52.5 10zM138 230q34 -8 50 15t8.5 59t-33.5 65q-6 7 -21 -3t-27.5 -29t-19.5 -40.5t3.5 -40.5t39.5 -26z" />
<glyph unicode="p" horiz-adv-x="344" d="M41 344q1 6 -6.5 19.5t-2.5 21.5q13 11 14 43.5t18 43.5q21 15 42 16t36 -16q8 -8 9 -28t5 -22q36 -4 66 -11.5t61.5 -21.5t48 -40t12.5 -60q-4 -38 -21.5 -63.5t-46 -39t-55 -21t-63 -15.5t-56.5 -15q-12 -73 -9.5 -110.5t23.5 -109.5q1 -3 10 -15.5t12 -18.5 q12 -25 -20 -31t-54 4q-11 4 -18.5 12t-12 18.5t-7.5 23.5t-4 25.5t-3 25.5q-11 83 -0.5 194t22.5 191zM147 339q-20 -20 -29 -66.5t7 -55.5q31 -14 74.5 9t49.5 70q6 35 -34 43q-18 8 -37.5 9t-30.5 -9z" />
<glyph unicode="q" horiz-adv-x="384" d="M130 451q30 14 67 10.5t59 -28.5q15 23 46.5 22.5t39.5 -18.5q16 -36 8 -94.5t-23.5 -115t-18 -131t24.5 -143.5q10 -23 35 -22.5t33 15.5q7 13 14.5 31.5t22.5 30.5t32 5q25 -11 30.5 -25t-3.5 -31t-20 -42q-20 -48 -77 -64.5t-103 5.5q-30 13 -49.5 42.5t-22.5 61.5 q0 13 2 46.5t1 56.5t-8 41q-7 11 -17 8.5t-28 -7.5t-27 -1q-11 7 -34.5 11.5t-32.5 11.5q-6 7 -22 24t-24.5 28.5t-12.5 23.5q-26 59 -4 122q10 43 39 76t73 50zM139 361q-42 -42 -37.5 -102t51.5 -87q17 -11 37.5 -6.5t29.5 24.5q13 28 14.5 69t-0.5 70q0 21 -21 39.5 t-47 14.5q-8 -3 -15 -9.5t-12 -12.5z" />
<glyph unicode="r" horiz-adv-x="323" d="M45 310q-2 15 -10.5 38t-14 39.5t-3.5 35.5t18 33q37 32 72.5 1t27.5 -81q19 3 38 18.5t31 30.5t32.5 24t44.5 2q12 -5 16 -6.5t12.5 -7t11 -9.5t2 -11.5t-6.5 -15.5q-19 -27 -69.5 -68.5t-71.5 -72.5q-8 -11 -9.5 -36t-5.5 -34q-19 -29 10 -65q15 -19 12 -50t-22 -50 q-15 -22 -42.5 -23t-42.5 18q-17 11 -15 45q4 89 -15 245z" />
<glyph unicode="s" horiz-adv-x="345" d="M210 447q9 -4 36.5 -14.5t40.5 -16.5t30 -19.5t25 -30.5q6 -11 -0.5 -28t-15.5 -23q-21 -13 -57 7l-67 37q-30 17 -73 -4q-19 -13 -1 -39t38 -33q104 -37 158 -87q20 -24 17.5 -56t-20.5 -61q-26 -44 -85 -69.5t-121 -12.5t-90 71q-10 20 7 39.5t40 21.5q13 1 25.5 -20 t20.5 -25q35 -20 82 -1.5t47 59.5q0 10 -15.5 23.5t-30.5 20.5q-11 5 -49 20.5t-54.5 23.5t-39 27t-33.5 43q-18 37 15 78.5t85.5 62t84.5 6.5z" />
<glyph unicode="t" horiz-adv-x="397" d="M167 447q1 9 7 45.5t8 56.5q4 34 41 39t65 -15q13 -13 5 -34q-39 -85 -39 -204q29 2 64.5 8t60.5 -3t16 -38q-5 -17 -23.5 -27t-41.5 -12t-48 -3t-45 0q-5 -34 8.5 -204t11.5 -197q-1 -15 -10.5 -24.5t-24.5 -9.5q-18 0 -27 6.5t-15 25.5q-9 25 -18.5 198t-25.5 202 q-21 -16 -46 -25t-49.5 -4t-33.5 30q-4 10 4.5 23t20.5 21q13 7 57.5 16.5t58.5 26.5q9 11 12 27.5t4.5 40.5t2.5 34z" />
<glyph unicode="u" horiz-adv-x="367" d="M26 358q-2 24 2 53t23 42q26 12 55.5 3.5t29.5 -33.5q0 -22 -2 -62t-2 -72.5t4 -61.5q2 -6 4.5 -20t5.5 -24l6 -25q3 -14 7 -21.5t10 -16t12 -7.5t15 4q65 44 80 131.5t-30 159.5q-9 14 -14 28t-4 28t13 19q48 20 85 -24t40 -96q6 -103 -26.5 -193t-108.5 -123 q-51 -23 -88 -9t-61 47.5t-37.5 83t-17.5 97.5t-1 92z" />
<glyph unicode="v" horiz-adv-x="430" d="M78 252q-45 83 -66 142q-9 26 11 42t48 15t38 -16q23 -28 48 -100.5t48 -102.5q32 55 60.5 139t46.5 150q13 32 50.5 31t66.5 -26q3 -6 -1 -19t-4 -16q-3 -4 -13 -14.5t-13 -16.5q-54 -197 -142 -365q-9 -17 -34.5 -25t-41.5 9q-15 13 -28 29.5t-22.5 33.5t-19 36 t-16.5 37z" />
<glyph unicode="w" horiz-adv-x="609" d="M112 441q20 -24 21.5 -63t-4.5 -73t3 -76q3 -10 7.5 -37t10.5 -45t17 -32q14 -18 34 11q11 16 32 63t42 68q20 19 35.5 20.5t36.5 -16.5q21 -20 48.5 -77t55.5 -75q12 -7 28 23q22 37 26 85.5t0 83.5t8 78q5 17 26.5 21.5t41.5 -8.5t23 -39q12 -107 -5 -186.5t-86 -125.5 q-63 -41 -125 -11q-22 10 -47.5 50t-31.5 41t-18.5 -19.5t-31 -47t-35.5 -35.5q-33 -19 -70.5 -19.5t-60.5 24.5q-40 53 -58.5 121.5t-16.5 133.5t7 137q4 33 37 40.5t50 -15.5z" />
<glyph unicode="x" horiz-adv-x="471" d="M88 470q38 0 61 -20.5t30.5 -47t20 -59.5t29.5 -50q17 9 41 29l42 38q19 16 40 28.5t41 9t37 -25.5q16 -26 11 -41t-27 -32t-46 -29.5t-46 -32.5t-26 -42q-9 -44 67 -103q18 -18 48.5 -55t48.5 -55q29 -29 -10.5 -50t-68.5 -11q-28 10 -53.5 39t-41.5 57.5t-41 54.5 t-53 32q-15 3 -39 -33t-28 -40q-19 -28 -58 -28t-52 28q-10 27 3.5 54t36 46t43 45t21.5 50q1 30 -19 67l-40 75q-20 38 -20 71q-5 13 11.5 22t36.5 9z" />
<glyph unicode="y" horiz-adv-x="346" d="M39 396q0 4 -2 18t-2 20.5t2 16t7 14.5q15 23 46 24t43 -24q14 -28 13 -80.5t2 -87.5q4 -13 17 2l3 3q16 44 44 97.5t65 75.5q14 5 33 6t30.5 -12t0.5 -34q-12 -23 -40 -71.5t-43.5 -78t-31 -75t-18.5 -86.5q-4 -52 -36.5 -125.5t-69.5 -120.5q-28 -34 -79 -35t-70 35 q-35 70 5 94q18 11 39 -2.5t25 -36.5q34 26 47.5 45.5t17.5 44t12 66.5q6 31 -16 80.5t-24 67.5q-3 27 -10 79.5t-10 79.5z" />
<glyph unicode="z" horiz-adv-x="473" d="M80 457q35 -6 89.5 -10t85 -8.5t72 -23t78.5 -52.5q3 -9 1 -22t-7 -21q-24 -24 -68 -61.5t-77.5 -71.5t-57.5 -73q60 -14 119.5 -15t121.5 -14q23 -5 32 -19t-5 -35q-15 -27 -48.5 -33.5t-65.5 5.5q-54 18 -100.5 11.5t-100.5 5.5q-119 30 -98 71t58.5 82t83.5 84t70 73 q-17 20 -28.5 25t-30 2t-32.5 -1q-15 2 -56.5 -1t-56.5 4q-10 0 -23 7.5t-16 19.5q-8 31 13 53t47 18z" />
<glyph unicode="{" horiz-adv-x="445" d="M353 623q6 -1 32 1.5t33 -7.5q51 -49 11 -75q-29 -14 -65.5 -12.5t-66.5 11t-65.5 9t-62.5 -18.5q3 -20 18 -42t30.5 -40t27 -37.5t7.5 -41t-29 -44.5q-3 -5 -8.5 -41t-18.5 -51q-4 -4 -20.5 -16.5t-24 -19.5t-18 -19t-13 -24t0.5 -24q7 -26 29 -38t49 -11t57 2t54 -1 q11 0 -1.5 -23t-25.5 -31q-74 -49 -189 -17q-44 13 -81 71q-9 19 -10 38.5t4 35t14.5 33t20 32t22.5 33t19 33.5q3 7 -14.5 16t-34.5 16q-33 23 -27 49q3 4 20.5 15.5t17.5 27.5q20 0 33.5 5t9.5 17q-2 15 -25.5 55.5t-11.5 62.5q14 27 35 46t47 27.5t50.5 12.5t57.5 1 t56 -6t56 -10z" />
<glyph unicode="|" horiz-adv-x="183" d="M139 367q0 -36 6 -86t11.5 -86.5t4.5 -81t-12 -81.5q-3 -14 -26 -25t-47.5 -5t-27.5 35q-21 236 -21 309q0 68 21 223q0 23 17 42.5t42 26.5q30 9 56.5 -14t17.5 -44q-42 -95 -42 -213z" />
<glyph unicode="}" horiz-adv-x="314" d="M43 622q6 11 15 15t18 2.5t19.5 -5t19.5 -7.5l63 -23q30 -11 63 -30t57 -43q22 -23 14 -53q-8 -32 -37.5 -49t-70.5 -30t-60 -27q16 -12 51.5 -17t51.5 -16t3 -43q-4 -11 -15 -19.5t-27.5 -18t-24.5 -15.5q14 -11 30.5 -21.5t30.5 -25t23 -29t9 -34t-12 -39.5 q-19 -34 -51 -59t-71 -33.5t-75 15.5q-10 20 0 38q9 13 28.5 20.5t35.5 10.5t26 13t6 28q-4 20 -30 38t-48.5 37t-22.5 41q0 6 11.5 23t8.5 25q-5 13 -30.5 34.5t-32.5 32.5q-9 16 1.5 32.5t27.5 25.5q28 19 87 40t72 27q-16 24 -50.5 34.5t-70 20t-52.5 31.5 q-10 12 -4.5 26.5t13.5 26.5z" />
<glyph unicode="~" horiz-adv-x="385" d="M81 579q19 19 32 29.5t31.5 20t37.5 8t39 -13.5q16 -10 23 -41.5t14 -41.5q10 -14 17.5 -16.5t14.5 4.5t14 16.5t20 22t28 19.5q18 6 27.5 -7t2.5 -27q-40 -61 -65.5 -80.5t-71.5 -21.5q-20 -1 -36 12t-23 35q-7 21 -14 31.5t-16 7.5q-22 -7 -36.5 -23t-20.5 -29 t-23 -20.5t-47 -1.5q-9 3 -10 18t6 25l25 39q9 13 31 35z" />
<glyph unicode="&#xa0;" />
<glyph unicode="&#xa1;" horiz-adv-x="231" d="M144 519q-8 5 -20 5q2 14 -3 38t-2.5 40.5t20.5 27.5q37 22 59 -2.5t32 -68.5q0 -30 -29.5 -44t-56.5 4zM158 473q13 -5 19.5 -13t7 -19t-0.5 -20.5t-4 -23.5t-4 -22q-29 -219 -73 -348q-7 -21 -29.5 -26.5t-40.5 4.5t-16 27q6 77 43 222.5t46 210.5q0 29 52 8z" />
<glyph unicode="&#xa5;" horiz-adv-x="361" d="M204 167l-3 -12q10 -1 27.5 5.5t29 9t28.5 -6.5q7 -2 12 5t8 5q17 -15 12 -30t-25 -23q-43 -31 -107 -39q-12 -58 -30 -124q-4 -12 -21.5 -19.5t-42.5 1.5q-17 7 -20 27t2 36q5 32 23 86q-46 13 -69 47q-9 19 11 36t47 21q20 0 40 -5q9 36 6 59q-39 2 -78 12 q-16 4 -28.5 18.5t-3.5 24.5q24 32 88 34q-11 28 -36.5 82.5t-42 98t-20.5 81.5q-3 23 28.5 37.5t47.5 -0.5q24 -21 38 -68l27 -98q14 -51 34 -75q16 21 41.5 109.5t58.5 112.5q24 19 53.5 9t19.5 -36q-71 -179 -109 -260q4 0 12 0.5t11 0.5q35 5 45 -19q16 -35 -45 -47 q-4 -1 -12.5 -3.5t-12.5 -3.5q1 -4 10 -17q9 -9 -4 -41q-5 -4 -25 -11t-25 -20z" />
<glyph unicode="&#xa7;" horiz-adv-x="575" d="M232 183q11 0 31 6.5t31.5 8.5t30.5 -7q8 -2 13.5 5t8.5 5q20 -15 14.5 -30t-28.5 -23q-23 -15 -58 -26q31 -26 71 -34t80 5q9 3 24 13l26 16q11 6 25.5 10t22.5 -4q27 -22 33.5 -43t-16.5 -41q-98 -71 -250 -24q-75 24 -111 53q-19 16 -32 35q-79 8 -114 55 q-10 20 12.5 37t53.5 20q13 0 19 -1q0 19 3 38q0 1 0.5 4.5t0.5 5.5q-30 3 -60 9q-18 5 -32 19.5t-4 24.5q30 38 123 34q48 100 150 125q63 14 145 -10q18 -6 31.5 -22.5t2.5 -35.5q-6 -11 -15 -16t-25.5 -8t-22.5 -5q-20 -6 -57 2t-52 3q-33 -12 -56 -39q35 -2 60 1 q38 3 51 -20q9 -19 -7 -30.5t-44 -17.5q-60 -12 -90 -14q-3 -38 9 -76q0 -4 2 -8z" />
<glyph unicode="&#xa8;" horiz-adv-x="324" d="M45 621q29 26 65.5 16.5t48.5 -39.5q15 -34 -5 -70.5t-59 -25.5q-31 9 -36 14q-32 30 -32 64q0 24 18 41zM304 618q17 -10 19.5 -31.5t-6.5 -37.5q-11 -26 -39.5 -41.5t-51.5 0.5q-23 15 -27 41.5t9.5 46.5t38 30t57.5 -8z" />
<glyph unicode="&#xaa;" horiz-adv-x="354" d="M258 -21q-8 5 -16.5 20.5t-15.5 15.5l-42 6q-29 4 -45.5 7.5t-38.5 10.5t-38 20t-27 32q-19 29 -15 71.5t24 68.5q28 37 68.5 57t73 22t57.5 0l25 -1q8 10 8 35t-15 28q-37 8 -76.5 -4.5t-72.5 -27.5q-26 -9 -38 28.5t-2 47.5q38 26 90 39t103.5 0.5t72.5 -56.5 q14 -29 15.5 -64.5t-5.5 -63.5l-14 -67q-9 -40 -11 -68q-1 -10 -1.5 -22.5t-1.5 -25.5l-4 -28q-1 -14 -3.5 -27t-6 -24t-8 -19.5t-10.5 -13t-13.5 -4t-16.5 6.5zM240 100q3 14 9 35l9 34q4 13 3.5 31.5t-8.5 37.5q-16 -6 -48.5 -11.5t-54 -10t-39.5 -22t-19 -47.5 q0 -20 36.5 -36t69.5 -17t42 6z" />
<glyph unicode="&#xb2;" horiz-adv-x="419" d="M69 31q-28 4 -32 34.5t9 47.5q26 47 99 113t94 92q4 8 -4.5 17.5t-12.5 11.5q-12 6 -38.5 6.5t-38.5 5.5q-25 12 -52.5 -4.5t-54.5 -1.5q-30 23 -18 82q6 18 20.5 26.5t27.5 8.5t33.5 -2.5t26.5 -2.5q112 0 164 -30q16 -10 35 -19.5t30.5 -28t4.5 -40.5q-18 -55 -59 -100 t-105 -93q-29 -29 -6 -29q45 -7 74.5 -8.5t52 -5t74.5 -16.5q6 0 14.5 -7.5t8.5 -15.5q4 -22 -9 -41t-32 -24q-55 -6 -93 -6t-57 2.5t-67.5 12t-88.5 15.5z" />
<glyph unicode="&#xb3;" horiz-adv-x="338" d="M250 71q-51 -25 -109 -23t-107 28q-24 16 -14.5 42t34.5 33q24 8 76.5 -3.5t78.5 -1.5q5 0 14.5 6t5.5 9q-10 26 -44.5 45.5t-67 29t-52.5 31.5t-6 54q12 20 57 42t53 28q-17 10 -53.5 10t-51.5 10q-26 23 -10 54t50 31q30 -3 56 -5t55 -9.5t50 -20.5q22 -14 27.5 -31 t-5.5 -35t-24 -32t-34.5 -33.5t-29.5 -28.5q5 -3 12.5 -13t12.5 -12q40 -8 70.5 -30t40.5 -55q20 -68 -85 -120z" />
<glyph unicode="&#xb4;" horiz-adv-x="158" d="M53 570q12 23 20 35.5t23 23.5t32 11q10 0 21.5 -12t7.5 -21q-15 -40 -27.5 -58t-46.5 -49q-8 -7 -18 -13t-21 -8t-15 8q-6 14 -4 26.5t4 16.5t10 16t14 24z" />
<glyph unicode="&#xb9;" horiz-adv-x="164" d="M105 -1q-39 0 -55 33q-22 56 -22 120t11 143.5t11 123.5q0 21 22.5 43.5t48.5 10.5q46 -21 38 -60q-30 -155 -21 -316q2 -8 16.5 -28.5t4.5 -36.5l-15 -16q-7 -7 -16.5 -12t-22.5 -5z" />
<glyph unicode="&#xba;" horiz-adv-x="282" d="M106 131q-50 30 -71 86t-4 114q9 33 35 69.5t29 43.5q20 38 60.5 34t71.5 -38q33 -38 49 -98q27 -101 -69 -202q-16 -17 -48.5 -19t-52.5 10zM138 230q34 -8 50 15t8.5 59t-33.5 65q-6 7 -21 -3t-27.5 -29t-19.5 -40.5t3.5 -40.5t39.5 -26z" />
<glyph unicode="&#xbf;" horiz-adv-x="330" d="M243 476q41 -28 59 -79t4 -96q-9 -27 -35.5 -47t-54.5 -30.5t-57 -32t-42 -50.5q31 -17 99 -38.5t100 -38.5q17 -8 13 -30t-23 -33q-50 -10 -73 0q-18 7 -64 23t-78.5 31.5t-61.5 37.5q-26 26 -19 39q10 40 44.5 71t77.5 60.5t62 57.5q13 19 4 51t-18 55t10 49 q7 8 24.5 8t28.5 -8zM277 558q-13 -9 -58 -9q-21 3 -29.5 19t0.5 34q10 22 39 30t48 -6q21 -15 21.5 -34t-21.5 -34z" />
<glyph unicode="&#xc0;" horiz-adv-x="402" d="M262 766q9 -35 16 -59.5t3.5 -39t-22.5 -16.5q-11 -1 -20.5 4.5t-14.5 11.5t-13 19l-62 88q-16 25 8.5 46t51.5 18q35 -4 53 -72zM121 443q5 16 19.5 83.5t35.5 96.5q8 12 33.5 16t33.5 -11q33 -71 60 -176t44 -185q0 -7 13.5 -14t17.5 -13q10 -17 0 -27q-17 -37 5 -98 t18 -87q-3 -21 -32.5 -26.5t-44.5 13.5q-14 19 -22.5 76t-35.5 73q-28 16 -66 11.5t-65 -25.5q-12 -9 -20 -32.5t-11.5 -46t-13 -43.5t-25 -25.5t-47.5 7.5q-6 28 -0.5 58t19 68.5t17.5 58.5q31 141 67 248zM176 353q-2 -13 -9 -32.5t-12.5 -32t-6.5 -26.5t9 -17 q17 -12 53 -10t42 23q8 29 2 63t-20 62l-27 60q-23 -28 -31 -90z" />
<glyph unicode="&#xc1;" horiz-adv-x="402" d="M229 760q12 23 20 35.5t23 23.5t32 11q10 0 21.5 -12t7.5 -21q-15 -40 -27.5 -58t-46.5 -49q-8 -7 -18 -13t-21 -8t-15 8q-6 14 -4 26.5t4 16.5t10 16t14 24zM121 443q5 16 19.5 83.5t35.5 96.5q8 12 33.5 16t33.5 -11q33 -71 60 -176t44 -185q0 -7 13.5 -14t17.5 -13 q10 -17 0 -27q-17 -37 5 -98t18 -87q-3 -21 -32.5 -26.5t-44.5 13.5q-14 19 -22.5 76t-35.5 73q-28 16 -66 11.5t-65 -25.5q-12 -9 -20 -32.5t-11.5 -46t-13 -43.5t-25 -25.5t-47.5 7.5q-6 28 -0.5 58t19 68.5t17.5 58.5q31 141 67 248zM176 353q-2 -13 -9 -32.5t-12.5 -32 t-6.5 -26.5t9 -17q17 -12 53 -10t42 23q8 29 2 63t-20 62l-27 60q-23 -28 -31 -90z" />
<glyph unicode="&#xc2;" horiz-adv-x="402" d="M216 813q14 0 20 -3q10 -13 56.5 -119t47.5 -114q-4 0 -9.5 -8t-10.5 -6q-5 3 -27.5 5.5t-24.5 6.5q-27 67 -61 113q-14 -26 -27.5 -44.5t-28.5 -32.5l-37 -38q-11 -8 -27 -7.5t-29 6.5q-21 9 -3 34l76 105q39 55 65 102h20zM121 443q5 16 19.5 83.5t35.5 96.5 q8 12 33.5 16t33.5 -11q33 -71 60 -176t44 -185q0 -7 13.5 -14t17.5 -13q10 -17 0 -27q-17 -37 5 -98t18 -87q-3 -21 -32.5 -26.5t-44.5 13.5q-14 19 -22.5 76t-35.5 73q-28 16 -66 11.5t-65 -25.5q-12 -9 -20 -32.5t-11.5 -46t-13 -43.5t-25 -25.5t-47.5 7.5q-6 28 -0.5 58 t19 68.5t17.5 58.5q31 141 67 248zM176 353q-2 -13 -9 -32.5t-12.5 -32t-6.5 -26.5t9 -17q17 -12 53 -10t42 23q8 29 2 63t-20 62l-27 60q-23 -28 -31 -90z" />
<glyph unicode="&#xc3;" horiz-adv-x="402" d="M124 749q19 19 32 29.5t31.5 20t37.5 8t39 -13.5q16 -10 23 -41.5t14 -41.5q10 -14 17.5 -16.5t14.5 4.5t14 16.5t20 22t28 19.5q18 6 27.5 -7t2.5 -27q-40 -61 -65.5 -80.5t-71.5 -21.5q-20 -1 -36 12t-23 35q-7 21 -14 31.5t-16 7.5q-22 -7 -36.5 -23t-20.5 -29 t-23 -20.5t-47 -1.5q-9 3 -10 18t6 25l25 39q9 13 31 35zM121 443q5 16 19.5 83.5t35.5 96.5q8 12 33.5 16t33.5 -11q33 -71 60 -176t44 -185q0 -7 13.5 -14t17.5 -13q10 -17 0 -27q-17 -37 5 -98t18 -87q-3 -21 -32.5 -26.5t-44.5 13.5q-14 19 -22.5 76t-35.5 73 q-28 16 -66 11.5t-65 -25.5q-12 -9 -20 -32.5t-11.5 -46t-13 -43.5t-25 -25.5t-47.5 7.5q-6 28 -0.5 58t19 68.5t17.5 58.5q31 141 67 248zM176 353q-2 -13 -9 -32.5t-12.5 -32t-6.5 -26.5t9 -17q17 -12 53 -10t42 23q8 29 2 63t-20 62l-27 60q-23 -28 -31 -90z" />
<glyph unicode="&#xc4;" horiz-adv-x="402" d="M80 777q29 26 65.5 16.5t48.5 -39.5q15 -34 -5 -70.5t-59 -25.5q-31 9 -36 14q-32 30 -32 64q0 24 18 41zM339 774q17 -10 19.5 -31.5t-6.5 -37.5q-11 -26 -39.5 -41.5t-51.5 0.5q-23 15 -27 41.5t9.5 46.5t38 30t57.5 -8zM121 443q5 16 19.5 83.5t35.5 96.5 q8 12 33.5 16t33.5 -11q33 -71 60 -176t44 -185q0 -7 13.5 -14t17.5 -13q10 -17 0 -27q-17 -37 5 -98t18 -87q-3 -21 -32.5 -26.5t-44.5 13.5q-14 19 -22.5 76t-35.5 73q-28 16 -66 11.5t-65 -25.5q-12 -9 -20 -32.5t-11.5 -46t-13 -43.5t-25 -25.5t-47.5 7.5q-6 28 -0.5 58 t19 68.5t17.5 58.5q31 141 67 248zM176 353q-2 -13 -9 -32.5t-12.5 -32t-6.5 -26.5t9 -17q17 -12 53 -10t42 23q8 29 2 63t-20 62l-27 60q-23 -28 -31 -90z" />
<glyph unicode="&#xc5;" horiz-adv-x="402" d="M176 353q-2 -13 -9 -32.5t-12.5 -32t-6.5 -26.5t9 -17q17 -12 53 -10t42 23q8 29 2 63t-20 62l-27 60q-23 -28 -31 -90zM248 637q-4 -4 -7 -6q2 -2 2 -3q33 -71 60 -176t44 -185q0 -7 13.5 -14t17.5 -13q10 -17 0 -27q-17 -37 5 -98t18 -87q-3 -21 -32.5 -26.5 t-44.5 13.5q-14 19 -22.5 76t-35.5 73q-28 16 -66 11.5t-65 -25.5q-12 -9 -20 -32.5t-11.5 -46t-13 -43.5t-25 -25.5t-47.5 7.5q-6 28 -0.5 58t19 68.5t17.5 58.5q31 141 67 248q5 16 19.5 83.5t35.5 96.5q1 2 4 5q-26 19 -31 53q-4 30 18.5 55t53.5 31q26 5 47 -22 q18 -29 11 -56.5t-31 -51.5zM226 676q17 21 8 35q-7 9 -13 9q-9 0 -16.5 -7.5t-8.5 -16.5q-4 -20 14 -27q8 -5 16 7z" />
<glyph unicode="&#xc7;" horiz-adv-x="450" d="M281 2q-3 -79 -23 -99q-18 -18 -57.5 -22.5t-66.5 10.5q-47 28 -14 61q10 10 39 2t39 1q5 4 5.5 13t-0.5 24t-1 22l-21 6q-75 24 -111 53q-74 62 -58 184q12 83 56.5 143.5t122.5 78.5q61 14 145 -10q18 -6 31 -22.5t2 -35.5q-6 -11 -15 -16t-25 -8t-22 -5q-20 -6 -57 2 t-52 3q-57 -20 -77 -77.5t-1 -118.5t77 -89.5t119 -8.5q9 3 24 13l26 16q11 6 25.5 10t22.5 -4q27 -22 33.5 -43t-16.5 -41q-64 -47 -150 -42z" />
<glyph unicode="&#xc8;" horiz-adv-x="359" d="M187 718q9 -35 16 -59.5t3.5 -39t-22.5 -16.5q-11 -1 -20.5 4.5t-14.5 11.5t-13 19l-62 88q-16 25 8.5 46t51.5 18q35 -4 53 -72zM38 381q0 15 -6 45.5t-6 53.5t12 40q42 61 126 68.5t146 -41.5q14 -10 3 -28.5t-35 -22.5q-17 -2 -59.5 9t-65.5 1q-22 -10 -25.5 -37 t2 -53.5t-4.5 -52.5q19 -11 48.5 -11.5t52.5 3t45.5 -6t33.5 -36.5q-16 -28 -49 -33t-67.5 -6t-49.5 -17q-20 -21 -18 -69.5t9 -86.5q33 -6 67.5 3t76 27.5t64.5 24.5q3 3 18 -9q7 -24 -2 -43t-30 -27q-46 -20 -107 -41.5t-110 -18.5q-7 1 -23.5 1.5t-25.5 4t-11 13.5 q-12 38 -8.5 110.5t-5.5 110.5q-1 5 -8.5 16t-9 17t3.5 18q0 3 8 9q4 3 6 5q6 12 6 30.5t-1 29.5z" />
<glyph unicode="&#xc9;" horiz-adv-x="359" d="M177 711q12 23 20 35.5t23 23.5t32 11q10 0 21.5 -12t7.5 -21q-15 -40 -27.5 -58t-46.5 -49q-8 -7 -18 -13t-21 -8t-15 8q-6 14 -4 26.5t4 16.5t10 16t14 24zM38 381q0 15 -6 45.5t-6 53.5t12 40q42 61 126 68.5t146 -41.5q14 -10 3 -28.5t-35 -22.5q-17 -2 -59.5 9 t-65.5 1q-22 -10 -25.5 -37t2 -53.5t-4.5 -52.5q19 -11 48.5 -11.5t52.5 3t45.5 -6t33.5 -36.5q-16 -28 -49 -33t-67.5 -6t-49.5 -17q-20 -21 -18 -69.5t9 -86.5q33 -6 67.5 3t76 27.5t64.5 24.5q3 3 18 -9q7 -24 -2 -43t-30 -27q-46 -20 -107 -41.5t-110 -18.5 q-7 1 -23.5 1.5t-25.5 4t-11 13.5q-12 38 -8.5 110.5t-5.5 110.5q-1 5 -8.5 16t-9 17t3.5 18q0 3 8 9q4 3 6 5q6 12 6 30.5t-1 29.5z" />
<glyph unicode="&#xca;" horiz-adv-x="359" d="M175 793q14 0 20 -3q10 -13 56.5 -119t47.5 -114q-4 0 -9.5 -8t-10.5 -6q-5 3 -27.5 5.5t-24.5 6.5q-27 67 -61 113q-14 -26 -27.5 -44.5t-28.5 -32.5l-37 -38q-11 -8 -27 -7.5t-29 6.5q-21 9 -3 34l76 105q39 55 65 102h20zM38 381q0 15 -6 45.5t-6 53.5t12 40 q42 61 126 68.5t146 -41.5q14 -10 3 -28.5t-35 -22.5q-17 -2 -59.5 9t-65.5 1q-22 -10 -25.5 -37t2 -53.5t-4.5 -52.5q19 -11 48.5 -11.5t52.5 3t45.5 -6t33.5 -36.5q-16 -28 -49 -33t-67.5 -6t-49.5 -17q-20 -21 -18 -69.5t9 -86.5q33 -6 67.5 3t76 27.5t64.5 24.5 q3 3 18 -9q7 -24 -2 -43t-30 -27q-46 -20 -107 -41.5t-110 -18.5q-7 1 -23.5 1.5t-25.5 4t-11 13.5q-12 38 -8.5 110.5t-5.5 110.5q-1 5 -8.5 16t-9 17t3.5 18q0 3 8 9q4 3 6 5q6 12 6 30.5t-1 29.5z" />
<glyph unicode="&#xcb;" horiz-adv-x="359" d="M51 774q29 26 65.5 16.5t48.5 -39.5q15 -34 -5 -70.5t-59 -25.5q-31 9 -36 14q-32 30 -32 64q0 24 18 41zM310 771q17 -10 19.5 -31.5t-6.5 -37.5q-11 -26 -39.5 -41.5t-51.5 0.5q-23 15 -27 41.5t9.5 46.5t38 30t57.5 -8zM38 381q0 15 -6 45.5t-6 53.5t12 40 q42 61 126 68.5t146 -41.5q14 -10 3 -28.5t-35 -22.5q-17 -2 -59.5 9t-65.5 1q-22 -10 -25.5 -37t2 -53.5t-4.5 -52.5q19 -11 48.5 -11.5t52.5 3t45.5 -6t33.5 -36.5q-16 -28 -49 -33t-67.5 -6t-49.5 -17q-20 -21 -18 -69.5t9 -86.5q33 -6 67.5 3t76 27.5t64.5 24.5 q3 3 18 -9q7 -24 -2 -43t-30 -27q-46 -20 -107 -41.5t-110 -18.5q-7 1 -23.5 1.5t-25.5 4t-11 13.5q-12 38 -8.5 110.5t-5.5 110.5q-1 5 -8.5 16t-9 17t3.5 18q0 3 8 9q4 3 6 5q6 12 6 30.5t-1 29.5z" />
<glyph unicode="&#xcc;" horiz-adv-x="161" d="M127 724q9 -35 16 -59.5t3.5 -39t-22.5 -16.5q-11 -1 -20.5 4.5t-14.5 11.5t-13 19l-62 88q-16 25 8.5 46t51.5 18q35 -4 53 -72zM29 173q-2 72 -1.5 174.5t12.5 179.5q6 40 39 51.5t70 -13.5q17 -17 11 -29q-25 -71 -29 -151t2.5 -181.5t4.5 -151.5q-1 -11 -23 -15 t-42 6q-17 8 -27.5 23.5t-13 32.5t-3.5 37t0 37z" />
<glyph unicode="&#xcd;" horiz-adv-x="161" d="M119 720q12 23 20 35.5t23 23.5t32 11q10 0 21.5 -12t7.5 -21q-15 -40 -27.5 -58t-46.5 -49q-8 -7 -18 -13t-21 -8t-15 8q-6 14 -4 26.5t4 16.5t10 16t14 24zM29 173q-2 72 -1.5 174.5t12.5 179.5q6 40 39 51.5t70 -13.5q17 -17 11 -29q-25 -71 -29 -151t2.5 -181.5 t4.5 -151.5q-1 -11 -23 -15t-42 6q-17 8 -27.5 23.5t-13 32.5t-3.5 37t0 37z" />
<glyph unicode="&#xce;" horiz-adv-x="161" d="M109 793q14 0 20 -3q10 -13 56.5 -119t47.5 -114q-4 0 -9.5 -8t-10.5 -6q-5 3 -27.5 5.5t-24.5 6.5q-27 67 -61 113q-14 -26 -27.5 -44.5t-28.5 -32.5l-37 -38q-11 -8 -27 -7.5t-29 6.5q-21 9 -3 34l76 105q39 55 65 102h20zM29 173q-2 72 -1.5 174.5t12.5 179.5 q6 40 39 51.5t70 -13.5q17 -17 11 -29q-25 -71 -29 -151t2.5 -181.5t4.5 -151.5q-1 -11 -23 -15t-42 6q-17 8 -27.5 23.5t-13 32.5t-3.5 37t0 37z" />
<glyph unicode="&#xcf;" horiz-adv-x="161" d="M-41 771q29 26 65.5 16.5t48.5 -39.5q15 -34 -5 -70.5t-59 -25.5q-31 9 -36 14q-32 30 -32 64q0 24 18 41zM218 768q17 -10 19.5 -31.5t-6.5 -37.5q-11 -26 -39.5 -41.5t-51.5 0.5q-23 15 -27 41.5t9.5 46.5t38 30t57.5 -8zM29 173q-2 72 -1.5 174.5t12.5 179.5 q6 40 39 51.5t70 -13.5q17 -17 11 -29q-25 -71 -29 -151t2.5 -181.5t4.5 -151.5q-1 -11 -23 -15t-42 6q-17 8 -27.5 23.5t-13 32.5t-3.5 37t0 37z" />
<glyph unicode="&#xd1;" horiz-adv-x="339" d="M49 740q19 19 32 29.5t31.5 20t37.5 8t39 -13.5q16 -10 23 -41.5t14 -41.5q10 -14 17.5 -16.5t14.5 4.5t14 16.5t20 22t28 19.5q18 6 27.5 -7t2.5 -27q-40 -61 -65.5 -80.5t-71.5 -21.5q-20 -1 -36 12t-23 35q-7 21 -14 31.5t-16 7.5q-22 -7 -36.5 -23t-20.5 -29 t-23 -20.5t-47 -1.5q-9 3 -10 18t6 25l25 39q9 13 31 35zM31 64q-8 9 -8 21q6 47 11.5 186t21.5 216q3 14 29 14t36 -10q31 -41 64 -137.5t64 -137.5q7 19 9 37.5t0.5 48.5t-1.5 37q0 32 -18 111.5t-11 122.5q3 21 35 24t39 -16q10 -25 17 -52.5t10.5 -53.5t6 -55t3 -56 t0.5 -56v-55q0 -103 -41 -144q-13 -15 -37 -16.5t-37 12.5q-25 29 -51.5 77.5t-42.5 82.5q-13 -35 -11 -98.5t-6 -98.5q-5 -19 -34 -21.5t-48 17.5z" />
<glyph unicode="&#xd2;" horiz-adv-x="404" d="M251 629q9 -35 16 -59.5t3.5 -39t-22.5 -16.5q-11 -1 -20.5 4.5t-14.5 11.5t-13 19l-62 88q-16 25 8.5 46t51.5 18q35 -4 53 -72zM27 284q20 70 77.5 125t126 62t130.5 -67q57 -77 39 -169t-94 -143q-50 -34 -103 -35.5t-99 30.5q-47 35 -69.5 88t-7.5 109zM131 223 q10 -45 35.5 -72t63.5 -10q47 22 65.5 71.5t5.5 103.5q-7 27 -39 38.5t-60 5.5q-24 -4 -50 -58t-21 -79z" />
<glyph unicode="&#xd3;" horiz-adv-x="404" d="M238 628q12 23 20 35.5t23 23.5t32 11q10 0 21.5 -12t7.5 -21q-15 -40 -27.5 -58t-46.5 -49q-8 -7 -18 -13t-21 -8t-15 8q-6 14 -4 26.5t4 16.5t10 16t14 24zM27 284q20 70 77.5 125t126 62t130.5 -67q57 -77 39 -169t-94 -143q-50 -34 -103 -35.5t-99 30.5 q-47 35 -69.5 88t-7.5 109zM131 223q10 -45 35.5 -72t63.5 -10q47 22 65.5 71.5t5.5 103.5q-7 27 -39 38.5t-60 5.5q-24 -4 -50 -58t-21 -79z" />
<glyph unicode="&#xd4;" horiz-adv-x="404" d="M248 695q14 0 20 -3q10 -13 56.5 -119t47.5 -114q-4 0 -9.5 -8t-10.5 -6q-5 3 -27.5 5.5t-24.5 6.5q-27 67 -61 113q-14 -26 -27.5 -44.5t-28.5 -32.5l-37 -38q-11 -8 -27 -7.5t-29 6.5q-21 9 -3 34l76 105q39 55 65 102h20zM27 284q20 70 77.5 125t126 62t130.5 -67 q57 -77 39 -169t-94 -143q-50 -34 -103 -35.5t-99 30.5q-47 35 -69.5 88t-7.5 109zM131 223q10 -45 35.5 -72t63.5 -10q47 22 65.5 71.5t5.5 103.5q-7 27 -39 38.5t-60 5.5q-24 -4 -50 -58t-21 -79z" />
<glyph unicode="&#xd5;" horiz-adv-x="404" d="M95 651q19 19 32 29.5t31.5 20t37.5 8t39 -13.5q16 -10 23 -41.5t14 -41.5q10 -14 17.5 -16.5t14.5 4.5t14 16.5t20 22t28 19.5q18 6 27.5 -7t2.5 -27q-40 -61 -65.5 -80.5t-71.5 -21.5q-20 -1 -36 12t-23 35q-7 21 -14 31.5t-16 7.5q-22 -7 -36.5 -23t-20.5 -29 t-23 -20.5t-47 -1.5q-9 3 -10 18t6 25l25 39q9 13 31 35zM27 284q20 70 77.5 125t126 62t130.5 -67q57 -77 39 -169t-94 -143q-50 -34 -103 -35.5t-99 30.5q-47 35 -69.5 88t-7.5 109zM131 223q10 -45 35.5 -72t63.5 -10q47 22 65.5 71.5t5.5 103.5q-7 27 -39 38.5t-60 5.5 q-24 -4 -50 -58t-21 -79z" />
<glyph unicode="&#xd6;" horiz-adv-x="404" d="M82 644q29 26 65.5 16.5t48.5 -39.5q15 -34 -5 -70.5t-59 -25.5q-31 9 -36 14q-32 30 -32 64q0 24 18 41zM341 641q17 -10 19.5 -31.5t-6.5 -37.5q-11 -26 -39.5 -41.5t-51.5 0.5q-23 15 -27 41.5t9.5 46.5t38 30t57.5 -8zM27 284q20 70 77.5 125t126 62t130.5 -67 q57 -77 39 -169t-94 -143q-50 -34 -103 -35.5t-99 30.5q-47 35 -69.5 88t-7.5 109zM131 223q10 -45 35.5 -72t63.5 -10q47 22 65.5 71.5t5.5 103.5q-7 27 -39 38.5t-60 5.5q-24 -4 -50 -58t-21 -79z" />
<glyph unicode="&#xd9;" horiz-adv-x="480" d="M277 721q9 -35 16 -59.5t3.5 -39t-22.5 -16.5q-11 -1 -20.5 4.5t-14.5 11.5t-13 19l-62 88q-16 25 8.5 46t51.5 18q35 -4 53 -72zM116 71q-53 56 -76.5 132.5t-19.5 152t28 154.5q9 28 39 42t60 0q21 -23 15 -47q-27 -62 -34 -133.5t15.5 -139t75.5 -99.5q32 -17 57 -10 t43.5 34t29.5 58t15 63q9 57 8 88t-7 87.5t-6 87.5q-1 11 4.5 19.5t11 13.5t23.5 10l22 8q5 1 27 6q0 -8 10 -12t10 -8q12 -87 13.5 -151.5t-16 -141t-59.5 -137.5q-32 -46 -84 -78.5t-107.5 -37t-97.5 38.5z" />
<glyph unicode="&#xda;" horiz-adv-x="480" d="M261 703q12 23 20 35.5t23 23.5t32 11q10 0 21.5 -12t7.5 -21q-15 -40 -27.5 -58t-46.5 -49q-8 -7 -18 -13t-21 -8t-15 8q-6 14 -4 26.5t4 16.5t10 16t14 24zM116 71q-53 56 -76.5 132.5t-19.5 152t28 154.5q9 28 39 42t60 0q21 -23 15 -47q-27 -62 -34 -133.5t15.5 -139 t75.5 -99.5q32 -17 57 -10t43.5 34t29.5 58t15 63q9 57 8 88t-7 87.5t-6 87.5q-1 11 4.5 19.5t11 13.5t23.5 10l22 8q5 1 27 6q0 -8 10 -12t10 -8q12 -87 13.5 -151.5t-16 -141t-59.5 -137.5q-32 -46 -84 -78.5t-107.5 -37t-97.5 38.5z" />
<glyph unicode="&#xdb;" horiz-adv-x="480" d="M262 790q14 0 20 -3q10 -13 56.5 -119t47.5 -114q-4 0 -9.5 -8t-10.5 -6q-5 3 -27.5 5.5t-24.5 6.5q-27 67 -61 113q-14 -26 -27.5 -44.5t-28.5 -32.5l-37 -38q-11 -8 -27 -7.5t-29 6.5q-21 9 -3 34l76 105q39 55 65 102h20zM116 71q-53 56 -76.5 132.5t-19.5 152 t28 154.5q9 28 39 42t60 0q21 -23 15 -47q-27 -62 -34 -133.5t15.5 -139t75.5 -99.5q32 -17 57 -10t43.5 34t29.5 58t15 63q9 57 8 88t-7 87.5t-6 87.5q-1 11 4.5 19.5t11 13.5t23.5 10l22 8q5 1 27 6q0 -8 10 -12t10 -8q12 -87 13.5 -151.5t-16 -141t-59.5 -137.5 q-32 -46 -84 -78.5t-107.5 -37t-97.5 38.5z" />
<glyph unicode="&#xdc;" horiz-adv-x="480" d="M129 745q29 26 65.5 16.5t48.5 -39.5q15 -34 -5 -70.5t-59 -25.5q-31 9 -36 14q-32 30 -32 64q0 24 18 41zM388 742q17 -10 19.5 -31.5t-6.5 -37.5q-11 -26 -39.5 -41.5t-51.5 0.5q-23 15 -27 41.5t9.5 46.5t38 30t57.5 -8zM116 71q-53 56 -76.5 132.5t-19.5 152 t28 154.5q9 28 39 42t60 0q21 -23 15 -47q-27 -62 -34 -133.5t15.5 -139t75.5 -99.5q32 -17 57 -10t43.5 34t29.5 58t15 63q9 57 8 88t-7 87.5t-6 87.5q-1 11 4.5 19.5t11 13.5t23.5 10l22 8q5 1 27 6q0 -8 10 -12t10 -8q12 -87 13.5 -151.5t-16 -141t-59.5 -137.5 q-32 -46 -84 -78.5t-107.5 -37t-97.5 38.5z" />
<glyph unicode="&#xdd;" horiz-adv-x="361" d="M76 793q12 23 20 35.5t23 23.5t32 11q10 0 21.5 -12t7.5 -21q-15 -40 -27.5 -58t-46.5 -49q-8 -7 -18 -13t-21 -8t-15 8q-6 14 -4 26.5t4 16.5t10 16t14 24zM92 -61q-17 7 -20 27t2 36q4 26 33.5 117.5t24.5 133.5q-7 53 -60.5 170t-60.5 174q-3 23 28.5 37.5t47.5 -0.5 q24 -21 38 -68l27 -98q14 -51 34 -75q16 21 41.5 109.5t58.5 112.5q24 19 53.5 9t19.5 -36q-82 -203 -114 -272q-14 -42 13 -77q9 -9 -4 -41q-5 -4 -25 -11t-25 -20q-39 -179 -48 -210q-4 -12 -21.5 -19.5t-42.5 1.5z" />
<glyph unicode="&#xe0;" horiz-adv-x="354" d="M258 -21q-8 5 -16.5 20.5t-15.5 15.5l-42 6q-29 4 -45.5 7.5t-38.5 10.5t-38 20t-27 32q-19 29 -15 71.5t24 68.5q28 37 68.5 57t73 22t57.5 0l25 -1q8 10 8 35t-15 28q-37 8 -76.5 -4.5t-72.5 -27.5q-26 -9 -38 28.5t-2 47.5q38 26 90 39t103.5 0.5t72.5 -56.5 q14 -29 15.5 -64.5t-5.5 -63.5l-14 -67q-9 -40 -11 -68q-1 -10 -1.5 -22.5t-1.5 -25.5l-4 -28q-1 -14 -3.5 -27t-6 -24t-8 -19.5t-10.5 -13t-13.5 -4t-16.5 6.5zM240 100q3 14 9 35l9 34q4 13 3.5 31.5t-8.5 37.5q-16 -6 -48.5 -11.5t-54 -10t-39.5 -22t-19 -47.5 q0 -20 36.5 -36t69.5 -17t42 6zM227 613q9 -35 16 -59.5t3.5 -39t-22.5 -16.5q-11 -1 -20.5 4.5t-14.5 11.5t-13 19l-62 88q-16 25 8.5 46t51.5 18q35 -4 53 -72z" />
<glyph unicode="&#xe1;" horiz-adv-x="354" d="M205 591q12 23 20 35.5t23 23.5t32 11q10 0 21.5 -12t7.5 -21q-15 -40 -27.5 -58t-46.5 -49q-8 -7 -18 -13t-21 -8t-15 8q-6 14 -4 26.5t4 16.5t10 16t14 24zM258 -21q-8 5 -16.5 20.5t-15.5 15.5l-42 6q-29 4 -45.5 7.5t-38.5 10.5t-38 20t-27 32q-19 29 -15 71.5 t24 68.5q28 37 68.5 57t73 22t57.5 0l25 -1q8 10 8 35t-15 28q-37 8 -76.5 -4.5t-72.5 -27.5q-26 -9 -38 28.5t-2 47.5q38 26 90 39t103.5 0.5t72.5 -56.5q14 -29 15.5 -64.5t-5.5 -63.5l-14 -67q-9 -40 -11 -68q-1 -10 -1.5 -22.5t-1.5 -25.5l-4 -28q-1 -14 -3.5 -27 t-6 -24t-8 -19.5t-10.5 -13t-13.5 -4t-16.5 6.5zM240 100q3 14 9 35l9 34q4 13 3.5 31.5t-8.5 37.5q-16 -6 -48.5 -11.5t-54 -10t-39.5 -22t-19 -47.5q0 -20 36.5 -36t69.5 -17t42 6z" />
<glyph unicode="&#xe2;" horiz-adv-x="354" d="M258 -21q-8 5 -16.5 20.5t-15.5 15.5l-42 6q-29 4 -45.5 7.5t-38.5 10.5t-38 20t-27 32q-19 29 -15 71.5t24 68.5q28 37 68.5 57t73 22t57.5 0l25 -1q8 10 8 35t-15 28q-37 8 -76.5 -4.5t-72.5 -27.5q-26 -9 -38 28.5t-2 47.5q38 26 90 39t103.5 0.5t72.5 -56.5 q14 -29 15.5 -64.5t-5.5 -63.5l-14 -67q-9 -40 -11 -68q-1 -10 -1.5 -22.5t-1.5 -25.5l-4 -28q-1 -14 -3.5 -27t-6 -24t-8 -19.5t-10.5 -13t-13.5 -4t-16.5 6.5zM240 100q3 14 9 35l9 34q4 13 3.5 31.5t-8.5 37.5q-16 -6 -48.5 -11.5t-54 -10t-39.5 -22t-19 -47.5 q0 -20 36.5 -36t69.5 -17t42 6zM232 676q14 0 20 -3q10 -13 56.5 -119t47.5 -114q-4 0 -9.5 -8t-10.5 -6q-5 3 -27.5 5.5t-24.5 6.5q-27 67 -61 113q-14 -26 -27.5 -44.5t-28.5 -32.5l-37 -38q-11 -8 -27 -7.5t-29 6.5q-21 9 -3 34l76 105q39 55 65 102h20z" />
<glyph unicode="&#xe3;" horiz-adv-x="354" d="M69 654q19 19 32 29.5t31.5 20t37.5 8t39 -13.5q16 -10 23 -41.5t14 -41.5q10 -14 17.5 -16.5t14.5 4.5t14 16.5t20 22t28 19.5q18 6 27.5 -7t2.5 -27q-40 -61 -65.5 -80.5t-71.5 -21.5q-20 -1 -36 12t-23 35q-7 21 -14 31.5t-16 7.5q-22 -7 -36.5 -23t-20.5 -29 t-23 -20.5t-47 -1.5q-9 3 -10 18t6 25l25 39q9 13 31 35zM258 -21q-8 5 -16.5 20.5t-15.5 15.5l-42 6q-29 4 -45.5 7.5t-38.5 10.5t-38 20t-27 32q-19 29 -15 71.5t24 68.5q28 37 68.5 57t73 22t57.5 0l25 -1q8 10 8 35t-15 28q-37 8 -76.5 -4.5t-72.5 -27.5 q-26 -9 -38 28.5t-2 47.5q38 26 90 39t103.5 0.5t72.5 -56.5q14 -29 15.5 -64.5t-5.5 -63.5l-14 -67q-9 -40 -11 -68q-1 -10 -1.5 -22.5t-1.5 -25.5l-4 -28q-1 -14 -3.5 -27t-6 -24t-8 -19.5t-10.5 -13t-13.5 -4t-16.5 6.5zM240 100q3 14 9 35l9 34q4 13 3.5 31.5t-8.5 37.5 q-16 -6 -48.5 -11.5t-54 -10t-39.5 -22t-19 -47.5q0 -20 36.5 -36t69.5 -17t42 6z" />
<glyph unicode="&#xe4;" horiz-adv-x="354" d="M48 627q29 26 65.5 16.5t48.5 -39.5q15 -34 -5 -70.5t-59 -25.5q-31 9 -36 14q-32 30 -32 64q0 24 18 41zM307 624q17 -10 19.5 -31.5t-6.5 -37.5q-11 -26 -39.5 -41.5t-51.5 0.5q-23 15 -27 41.5t9.5 46.5t38 30t57.5 -8zM258 -21q-8 5 -16.5 20.5t-15.5 15.5l-42 6 q-29 4 -45.5 7.5t-38.5 10.5t-38 20t-27 32q-19 29 -15 71.5t24 68.5q28 37 68.5 57t73 22t57.5 0l25 -1q8 10 8 35t-15 28q-37 8 -76.5 -4.5t-72.5 -27.5q-26 -9 -38 28.5t-2 47.5q38 26 90 39t103.5 0.5t72.5 -56.5q14 -29 15.5 -64.5t-5.5 -63.5l-14 -67q-9 -40 -11 -68 q-1 -10 -1.5 -22.5t-1.5 -25.5l-4 -28q-1 -14 -3.5 -27t-6 -24t-8 -19.5t-10.5 -13t-13.5 -4t-16.5 6.5zM240 100q3 14 9 35l9 34q4 13 3.5 31.5t-8.5 37.5q-16 -6 -48.5 -11.5t-54 -10t-39.5 -22t-19 -47.5q0 -20 36.5 -36t69.5 -17t42 6z" />
<glyph unicode="&#xe5;" horiz-adv-x="354" d="M258 -21q-8 5 -16.5 20.5t-15.5 15.5l-42 6q-29 4 -45.5 7.5t-38.5 10.5t-38 20t-27 32q-19 29 -15 71.5t24 68.5q28 37 68.5 57t73 22t57.5 0l25 -1q8 10 8 35t-15 28q-37 8 -76.5 -4.5t-72.5 -27.5q-26 -9 -38 28.5t-2 47.5q38 26 90 39t103.5 0.5t72.5 -56.5 q14 -29 15.5 -64.5t-5.5 -63.5l-14 -67q-9 -40 -11 -68q-1 -10 -1.5 -22.5t-1.5 -25.5l-4 -28q-1 -14 -3.5 -27t-6 -24t-8 -19.5t-10.5 -13t-13.5 -4t-16.5 6.5zM240 100q3 14 9 35l9 34q4 13 3.5 31.5t-8.5 37.5q-16 -6 -48.5 -11.5t-54 -10t-39.5 -22t-19 -47.5 q0 -20 36.5 -36t69.5 -17t42 6zM261 467q-31 -31 -61 -14q-34 20 -37 58q-4 30 19 55.5t53 30.5q26 5 47 -22q18 -29 10.5 -56.5t-31.5 -51.5zM240 506q15 22 7 35q-5 9 -12 9q-10 0 -17.5 -7.5t-8.5 -16.5q-2 -21 15 -27q7 -4 16 7z" />
<glyph unicode="&#xe7;" horiz-adv-x="378" d="M278 21q6 -6 -0.5 -55.5t-19.5 -62.5q-18 -18 -57.5 -22.5t-66.5 10.5q-47 28 -14 61q10 10 39 2t39 1q8 1 5.5 32.5t-0.5 39.5q-28 4 -63 14q-69 20 -103.5 82t-22.5 137q16 95 83 154q13 13 29 26l31 26q15 13 33 23t35 15.5t36.5 5t37.5 -8.5q23 -10 13 -39 q-9 -27 -28.5 -41.5t-49.5 -26.5t-47 -24q-74 -57 -78 -120q-4 -56 21 -93q13 -21 40.5 -32.5t51.5 -17.5q23 -9 46 4t46 31t40 19q15 1 20.5 -8t2.5 -23t-7.5 -25.5t-9.5 -19.5q-32 -48 -88 -58z" />
<glyph unicode="&#xe8;" horiz-adv-x="339" d="M22 282q-2 75 47 121t122 36q60 -8 104.5 -58t43.5 -112q-9 -28 -82.5 -71.5t-83.5 -53.5q-5 -1 -12.5 -8t-3.5 -13q12 -22 30 -31t40.5 -5t41 11t43.5 20q26 -20 16.5 -53.5t-40.5 -38.5q-25 -3 -46.5 -7t-47.5 -2.5t-48 11.5q-120 54 -124 254zM131 231q90 4 108 63 q16 35 -26 53.5t-75 1.5q-20 -11 -26.5 -39.5t0.5 -53t19 -25.5zM176 597q9 -35 16 -59.5t3.5 -39t-22.5 -16.5q-11 -1 -20.5 4.5t-14.5 11.5t-13 19l-62 88q-16 25 8.5 46t51.5 18q35 -4 53 -72z" />
<glyph unicode="&#xe9;" horiz-adv-x="339" d="M183 573q12 23 20 35.5t23 23.5t32 11q10 0 21.5 -12t7.5 -21q-15 -40 -27.5 -58t-46.5 -49q-8 -7 -18 -13t-21 -8t-15 8q-6 14 -4 26.5t4 16.5t10 16t14 24zM22 282q-2 75 47 121t122 36q60 -8 104.5 -58t43.5 -112q-9 -28 -82.5 -71.5t-83.5 -53.5q-5 -1 -12.5 -8 t-3.5 -13q12 -22 30 -31t40.5 -5t41 11t43.5 20q26 -20 16.5 -53.5t-40.5 -38.5q-25 -3 -46.5 -7t-47.5 -2.5t-48 11.5q-120 54 -124 254zM131 231q90 4 108 63q16 35 -26 53.5t-75 1.5q-20 -11 -26.5 -39.5t0.5 -53t19 -25.5z" />
<glyph unicode="&#xea;" horiz-adv-x="339" d="M22 282q-2 75 47 121t122 36q60 -8 104.5 -58t43.5 -112q-9 -28 -82.5 -71.5t-83.5 -53.5q-5 -1 -12.5 -8t-3.5 -13q12 -22 30 -31t40.5 -5t41 11t43.5 20q26 -20 16.5 -53.5t-40.5 -38.5q-25 -3 -46.5 -7t-47.5 -2.5t-48 11.5q-120 54 -124 254zM131 231q90 4 108 63 q16 35 -26 53.5t-75 1.5q-20 -11 -26.5 -39.5t0.5 -53t19 -25.5zM175 663q14 0 20 -3q10 -13 56.5 -119t47.5 -114q-4 0 -9.5 -8t-10.5 -6q-5 3 -27.5 5.5t-24.5 6.5q-27 67 -61 113q-14 -26 -27.5 -44.5t-28.5 -32.5l-37 -38q-11 -8 -27 -7.5t-29 6.5q-21 9 -3 34l76 105 q39 55 65 102h20z" />
<glyph unicode="&#xeb;" horiz-adv-x="339" d="M45 621q29 26 65.5 16.5t48.5 -39.5q15 -34 -5 -70.5t-59 -25.5q-31 9 -36 14q-32 30 -32 64q0 24 18 41zM304 618q17 -10 19.5 -31.5t-6.5 -37.5q-11 -26 -39.5 -41.5t-51.5 0.5q-23 15 -27 41.5t9.5 46.5t38 30t57.5 -8zM22 282q-2 75 47 121t122 36q60 -8 104.5 -58 t43.5 -112q-9 -28 -82.5 -71.5t-83.5 -53.5q-5 -1 -12.5 -8t-3.5 -13q12 -22 30 -31t40.5 -5t41 11t43.5 20q26 -20 16.5 -53.5t-40.5 -38.5q-25 -3 -46.5 -7t-47.5 -2.5t-48 11.5q-120 54 -124 254zM131 231q90 4 108 63q16 35 -26 53.5t-75 1.5q-20 -11 -26.5 -39.5 t0.5 -53t19 -25.5z" />
<glyph unicode="&#xec;" d="M121 548q9 -35 16 -59.5t3.5 -39t-22.5 -16.5q-11 -1 -20.5 4.5t-14.5 11.5t-13 19l-62 88q-16 25 8.5 46t51.5 18q35 -4 53 -72zM42 253q0 79 18 114q10 19 33 25.5t45 -3.5q16 -7 24 -20.5t-2 -27.5q-18 -25 -20 -70t-6 -57q-9 -23 -1.5 -70t1.5 -70q0 -3 -3 -8t-6 -5 q-67 -19 -79 18q-8 26 -9 54.5t2 66t3 53.5z" />
<glyph unicode="&#xed;" d="M108 556q12 23 20 35.5t23 23.5t32 11q10 0 21.5 -12t7.5 -21q-15 -40 -27.5 -58t-46.5 -49q-8 -7 -18 -13t-21 -8t-15 8q-6 14 -4 26.5t4 16.5t10 16t14 24zM42 253q0 79 18 114q10 19 33 25.5t45 -3.5q16 -7 24 -20.5t-2 -27.5q-18 -25 -20 -70t-6 -57q-9 -23 -1.5 -70 t1.5 -70q0 -3 -3 -8t-6 -5q-67 -19 -79 18q-8 26 -9 54.5t2 66t3 53.5z" />
<glyph unicode="&#xee;" d="M115 646q14 0 20 -3q10 -13 56.5 -119t47.5 -114q-4 0 -9.5 -8t-10.5 -6q-5 3 -27.5 5.5t-24.5 6.5q-27 67 -61 113q-14 -26 -27.5 -44.5t-28.5 -32.5l-37 -38q-11 -8 -27 -7.5t-29 6.5q-21 9 -3 34l76 105q39 55 65 102h20zM42 253q0 79 18 114q10 19 33 25.5t45 -3.5 q16 -7 24 -20.5t-2 -27.5q-18 -25 -20 -70t-6 -57q-9 -23 -1.5 -70t1.5 -70q0 -3 -3 -8t-6 -5q-67 -19 -79 18q-8 26 -9 54.5t2 66t3 53.5z" />
<glyph unicode="&#xef;" d="M-16 592q29 26 65.5 16.5t48.5 -39.5q15 -34 -5 -70.5t-59 -25.5q-31 9 -36 14q-32 30 -32 64q0 24 18 41zM243 589q17 -10 19.5 -31.5t-6.5 -37.5q-11 -26 -39.5 -41.5t-51.5 0.5q-23 15 -27 41.5t9.5 46.5t38 30t57.5 -8zM42 253q0 79 18 114q10 19 33 25.5t45 -3.5 q16 -7 24 -20.5t-2 -27.5q-18 -25 -20 -70t-6 -57q-9 -23 -1.5 -70t1.5 -70q0 -3 -3 -8t-6 -5q-67 -19 -79 18q-8 26 -9 54.5t2 66t3 53.5z" />
<glyph unicode="&#xf1;" horiz-adv-x="360" d="M81 579q19 19 32 29.5t31.5 20t37.5 8t39 -13.5q16 -10 23 -41.5t14 -41.5q10 -14 17.5 -16.5t14.5 4.5t14 16.5t20 22t28 19.5q18 6 27.5 -7t2.5 -27q-40 -61 -65.5 -80.5t-71.5 -21.5q-20 -1 -36 12t-23 35q-7 21 -14 31.5t-16 7.5q-22 -7 -36.5 -23t-20.5 -29 t-23 -20.5t-47 -1.5q-9 3 -10 18t6 25l25 39q9 13 31 35zM44 217q0 16 -3 53.5t-2 64t9 47.5q9 23 40.5 21.5t38.5 -26.5q4 -14 -2.5 -40t-6.5 -36q2 -2 5.5 -8.5t3.5 -3.5q2 3 9 16l10 17q3 5 10.5 16t11.5 15t11.5 12.5t13.5 11.5l15 7q8 5 16 5.5t17.5 0t20.5 -3.5 q25 -41 37.5 -95t13.5 -102t4 -103q10 -44 -13 -51q-64 -17 -68 9q-6 38 -9 120t-12 125q-28 -31 -55 -102.5t-42 -96.5q-12 -20 -36.5 -21t-33.5 21q-6 17 -7 37.5t1 49t2 40.5z" />
<glyph unicode="&#xf2;" horiz-adv-x="282" d="M106 131q-50 30 -71 86t-4 114q9 33 35 69.5t29 43.5q20 38 60.5 34t71.5 -38q33 -38 49 -98q27 -101 -69 -202q-16 -17 -48.5 -19t-52.5 10zM138 230q34 -8 50 15t8.5 59t-33.5 65q-6 7 -21 -3t-27.5 -29t-19.5 -40.5t3.5 -40.5t39.5 -26zM147 666q9 -35 16 -59.5 t3.5 -39t-22.5 -16.5q-11 -1 -20.5 4.5t-14.5 11.5t-13 19l-62 88q-16 25 8.5 46t51.5 18q35 -4 53 -72z" />
<glyph unicode="&#xf3;" horiz-adv-x="282" d="M172 618q12 23 20 35.5t23 23.5t32 11q10 0 21.5 -12t7.5 -21q-15 -40 -27.5 -58t-46.5 -49q-8 -7 -18 -13t-21 -8t-15 8q-6 14 -4 26.5t4 16.5t10 16t14 24zM106 131q-50 30 -71 86t-4 114q9 33 35 69.5t29 43.5q20 38 60.5 34t71.5 -38q33 -38 49 -98q27 -101 -69 -202 q-16 -17 -48.5 -19t-52.5 10zM138 230q34 -8 50 15t8.5 59t-33.5 65q-6 7 -21 -3t-27.5 -29t-19.5 -40.5t3.5 -40.5t39.5 -26z" />
<glyph unicode="&#xf4;" horiz-adv-x="282" d="M106 131q-50 30 -71 86t-4 114q9 33 35 69.5t29 43.5q20 38 60.5 34t71.5 -38q33 -38 49 -98q27 -101 -69 -202q-16 -17 -48.5 -19t-52.5 10zM138 230q34 -8 50 15t8.5 59t-33.5 65q-6 7 -21 -3t-27.5 -29t-19.5 -40.5t3.5 -40.5t39.5 -26zM151 702q14 0 20 -3 q10 -13 56.5 -119t47.5 -114q-4 0 -9.5 -8t-10.5 -6q-5 3 -27.5 5.5t-24.5 6.5q-27 67 -61 113q-14 -26 -27.5 -44.5t-28.5 -32.5l-37 -38q-11 -8 -27 -7.5t-29 6.5q-21 9 -3 34l76 105q39 55 65 102h20z" />
<glyph unicode="&#xf5;" horiz-adv-x="282" d="M45 650q19 19 32 29.5t31.5 20t37.5 8t39 -13.5q16 -10 23 -41.5t14 -41.5q10 -14 17.5 -16.5t14.5 4.5t14 16.5t20 22t28 19.5q18 6 27.5 -7t2.5 -27q-40 -61 -65.5 -80.5t-71.5 -21.5q-20 -1 -36 12t-23 35q-7 21 -14 31.5t-16 7.5q-22 -7 -36.5 -23t-20.5 -29 t-23 -20.5t-47 -1.5q-9 3 -10 18t6 25l25 39q9 13 31 35zM106 131q-50 30 -71 86t-4 114q9 33 35 69.5t29 43.5q20 38 60.5 34t71.5 -38q33 -38 49 -98q27 -101 -69 -202q-16 -17 -48.5 -19t-52.5 10zM138 230q34 -8 50 15t8.5 59t-33.5 65q-6 7 -21 -3t-27.5 -29 t-19.5 -40.5t3.5 -40.5t39.5 -26z" />
<glyph unicode="&#xf6;" horiz-adv-x="282" d="M24 654q29 26 65.5 16.5t48.5 -39.5q15 -34 -5 -70.5t-59 -25.5q-31 9 -36 14q-32 30 -32 64q0 24 18 41zM283 651q17 -10 19.5 -31.5t-6.5 -37.5q-11 -26 -39.5 -41.5t-51.5 0.5q-23 15 -27 41.5t9.5 46.5t38 30t57.5 -8zM106 131q-50 30 -71 86t-4 114q9 33 35 69.5 t29 43.5q20 38 60.5 34t71.5 -38q33 -38 49 -98q27 -101 -69 -202q-16 -17 -48.5 -19t-52.5 10zM138 230q34 -8 50 15t8.5 59t-33.5 65q-6 7 -21 -3t-27.5 -29t-19.5 -40.5t3.5 -40.5t39.5 -26z" />
<glyph unicode="&#xf9;" horiz-adv-x="367" d="M26 358q-2 24 2 53t23 42q26 12 55.5 3.5t29.5 -33.5q0 -22 -2 -62t-2 -72.5t4 -61.5q2 -6 4.5 -20t5.5 -24l6 -25q3 -14 7 -21.5t10 -16t12 -7.5t15 4q65 44 80 131.5t-30 159.5q-9 14 -14 28t-4 28t13 19q48 20 85 -24t40 -96q6 -103 -26.5 -193t-108.5 -123 q-51 -23 -88 -9t-61 47.5t-37.5 83t-17.5 97.5t-1 92zM179 643q9 -35 16 -59.5t3.5 -39t-22.5 -16.5q-11 -1 -20.5 4.5t-14.5 11.5t-13 19l-62 88q-16 25 8.5 46t51.5 18q35 -4 53 -72z" />
<glyph unicode="&#xfa;" horiz-adv-x="367" d="M180 628q12 23 20 35.5t23 23.5t32 11q10 0 21.5 -12t7.5 -21q-15 -40 -27.5 -58t-46.5 -49q-8 -7 -18 -13t-21 -8t-15 8q-6 14 -4 26.5t4 16.5t10 16t14 24zM26 358q-2 24 2 53t23 42q26 12 55.5 3.5t29.5 -33.5q0 -22 -2 -62t-2 -72.5t4 -61.5q2 -6 4.5 -20t5.5 -24 l6 -25q3 -14 7 -21.5t10 -16t12 -7.5t15 4q65 44 80 131.5t-30 159.5q-9 14 -14 28t-4 28t13 19q48 20 85 -24t40 -96q6 -103 -26.5 -193t-108.5 -123q-51 -23 -88 -9t-61 47.5t-37.5 83t-17.5 97.5t-1 92z" />
<glyph unicode="&#xfb;" horiz-adv-x="367" d="M26 358q-2 24 2 53t23 42q26 12 55.5 3.5t29.5 -33.5q0 -22 -2 -62t-2 -72.5t4 -61.5q2 -6 4.5 -20t5.5 -24l6 -25q3 -14 7 -21.5t10 -16t12 -7.5t15 4q65 44 80 131.5t-30 159.5q-9 14 -14 28t-4 28t13 19q48 20 85 -24t40 -96q6 -103 -26.5 -193t-108.5 -123 q-51 -23 -88 -9t-61 47.5t-37.5 83t-17.5 97.5t-1 92zM187 729q14 0 20 -3q10 -13 56.5 -119t47.5 -114q-4 0 -9.5 -8t-10.5 -6q-5 3 -27.5 5.5t-24.5 6.5q-27 67 -61 113q-14 -26 -27.5 -44.5t-28.5 -32.5l-37 -38q-11 -8 -27 -7.5t-29 6.5q-21 9 -3 34l76 105 q39 55 65 102h20z" />
<glyph unicode="&#xfc;" horiz-adv-x="367" d="M48 647q29 26 65.5 16.5t48.5 -39.5q15 -34 -5 -70.5t-59 -25.5q-31 9 -36 14q-32 30 -32 64q0 24 18 41zM307 644q17 -10 19.5 -31.5t-6.5 -37.5q-11 -26 -39.5 -41.5t-51.5 0.5q-23 15 -27 41.5t9.5 46.5t38 30t57.5 -8zM26 358q-2 24 2 53t23 42q26 12 55.5 3.5 t29.5 -33.5q0 -22 -2 -62t-2 -72.5t4 -61.5q2 -6 4.5 -20t5.5 -24l6 -25q3 -14 7 -21.5t10 -16t12 -7.5t15 4q65 44 80 131.5t-30 159.5q-9 14 -14 28t-4 28t13 19q48 20 85 -24t40 -96q6 -103 -26.5 -193t-108.5 -123q-51 -23 -88 -9t-61 47.5t-37.5 83t-17.5 97.5t-1 92z " />
<glyph unicode="&#xfd;" horiz-adv-x="346" d="M100 640q12 23 20 35.5t23 23.5t32 11q10 0 21.5 -12t7.5 -21q-15 -40 -27.5 -58t-46.5 -49q-8 -7 -18 -13t-21 -8t-15 8q-6 14 -4 26.5t4 16.5t10 16t14 24zM39 396q0 4 -2 18t-2 20.5t2 16t7 14.5q15 23 46 24t43 -24q14 -28 13 -80.5t2 -87.5q4 -13 17 2l3 3 q16 44 44 97.5t65 75.5q14 5 33 6t30.5 -12t0.5 -34q-12 -23 -40 -71.5t-43.5 -78t-31 -75t-18.5 -86.5q-4 -52 -36.5 -125.5t-69.5 -120.5q-28 -34 -79 -35t-70 35q-35 70 5 94q18 11 39 -2.5t25 -36.5q34 26 47.5 45.5t17.5 44t12 66.5q6 31 -16 80.5t-24 67.5 q-3 27 -10 79.5t-10 79.5z" />
<glyph unicode="&#xff;" horiz-adv-x="346" d="M-39 671q29 26 65.5 16.5t48.5 -39.5q15 -34 -5 -70.5t-59 -25.5q-31 9 -36 14q-32 30 -32 64q0 24 18 41zM220 668q17 -10 19.5 -31.5t-6.5 -37.5q-11 -26 -39.5 -41.5t-51.5 0.5q-23 15 -27 41.5t9.5 46.5t38 30t57.5 -8zM39 396q0 4 -2 18t-2 20.5t2 16t7 14.5 q15 23 46 24t43 -24q14 -28 13 -80.5t2 -87.5q4 -13 17 2l3 3q16 44 44 97.5t65 75.5q14 5 33 6t30.5 -12t0.5 -34q-12 -23 -40 -71.5t-43.5 -78t-31 -75t-18.5 -86.5q-4 -52 -36.5 -125.5t-69.5 -120.5q-28 -34 -79 -35t-70 35q-35 70 5 94q18 11 39 -2.5t25 -36.5 q34 26 47.5 45.5t17.5 44t12 66.5q6 31 -16 80.5t-24 67.5q-3 27 -10 79.5t-10 79.5z" />
<glyph unicode="&#x152;" horiz-adv-x="763" d="M442 381q0 15 -6 45.5t-6 53.5t12 40q42 61 126 68.5t146 -41.5q14 -10 3 -28.5t-35 -22.5q-17 -2 -59.5 9t-65.5 1q-22 -10 -25.5 -37t2 -53.5t-4.5 -52.5q19 -11 48.5 -11.5t52.5 3t45.5 -6t33.5 -36.5q-16 -28 -49 -33t-67.5 -6t-49.5 -17q-20 -21 -18 -69.5t9 -86.5 q33 -6 67.5 3t76 27.5t64.5 24.5q3 3 18 -9q7 -24 -2 -43t-30 -27q-46 -20 -107 -41.5t-110 -18.5q-7 1 -23.5 1.5t-25.5 4t-11 13.5q-12 38 -8.5 110.5t-5.5 110.5q-1 5 -8.5 16t-9 17t3.5 18q0 3 8 9q4 3 6 5q6 12 6 30.5t-1 29.5zM27 284q20 70 77.5 125t126 62 t130.5 -67q57 -77 39 -169t-94 -143q-50 -34 -103 -35.5t-99 30.5q-47 35 -69.5 88t-7.5 109zM131 223q10 -45 35.5 -72t63.5 -10q47 22 65.5 71.5t5.5 103.5q-7 27 -39 38.5t-60 5.5q-24 -4 -50 -58t-21 -79z" />
<glyph unicode="&#x153;" horiz-adv-x="621" d="M304 282q-2 75 47 121t122 36q60 -8 104.5 -58t43.5 -112q-9 -28 -82.5 -71.5t-83.5 -53.5q-5 -1 -12.5 -8t-3.5 -13q12 -22 30 -31t40.5 -5t41 11t43.5 20q26 -20 16.5 -53.5t-40.5 -38.5q-25 -3 -46.5 -7t-47.5 -2.5t-48 11.5q-120 54 -124 254zM413 231q90 4 108 63 q16 35 -26 53.5t-75 1.5q-20 -11 -26.5 -39.5t0.5 -53t19 -25.5zM106 131q-50 30 -71 86t-4 114q9 33 35 69.5t29 43.5q20 38 60.5 34t71.5 -38q33 -38 49 -98q27 -101 -69 -202q-16 -17 -48.5 -19t-52.5 10zM138 230q34 -8 50 15t8.5 59t-33.5 65q-6 7 -21 -3t-27.5 -29 t-19.5 -40.5t3.5 -40.5t39.5 -26z" />
<glyph unicode="&#x178;" horiz-adv-x="361" d="M-64 823q29 26 65.5 16.5t48.5 -39.5q15 -34 -5 -70.5t-59 -25.5q-31 9 -36 14q-32 30 -32 64q0 24 18 41zM195 820q17 -10 19.5 -31.5t-6.5 -37.5q-11 -26 -39.5 -41.5t-51.5 0.5q-23 15 -27 41.5t9.5 46.5t38 30t57.5 -8zM92 -61q-17 7 -20 27t2 36q4 26 33.5 117.5 t24.5 133.5q-7 53 -60.5 170t-60.5 174q-3 23 28.5 37.5t47.5 -0.5q24 -21 38 -68l27 -98q14 -51 34 -75q16 21 41.5 109.5t58.5 112.5q24 19 53.5 9t19.5 -36q-82 -203 -114 -272q-14 -42 13 -77q9 -9 -4 -41q-5 -4 -25 -11t-25 -20q-39 -179 -48 -210q-4 -12 -21.5 -19.5 t-42.5 1.5z" />
<glyph unicode="&#x2c6;" horiz-adv-x="311" d="M187 640q14 0 20 -3q10 -13 56.5 -119t47.5 -114q-4 0 -9.5 -8t-10.5 -6q-5 3 -27.5 5.5t-24.5 6.5q-27 67 -61 113q-14 -26 -27.5 -44.5t-28.5 -32.5l-37 -38q-11 -8 -27 -7.5t-29 6.5q-21 9 -3 34l76 105q39 55 65 102h20z" />
<glyph unicode="&#x2dc;" d="M-121 189q19 19 32 29.5t31.5 20t37.5 8t39 -13.5q16 -10 23 -41.5t14 -41.5q10 -14 17.5 -16.5t14.5 4.5t14 16.5t20 22t28 19.5q18 6 27.5 -7t2.5 -27q-40 -61 -65.5 -80.5t-71.5 -21.5q-20 -1 -36 12t-23 35q-7 21 -14 31.5t-16 7.5q-22 -7 -36.5 -23t-20.5 -29 t-23 -20.5t-47 -1.5q-9 3 -10 18t6 25l25 39q9 13 31 35z" />
<glyph unicode="&#x2000;" horiz-adv-x="431" />
<glyph unicode="&#x2001;" horiz-adv-x="863" />
<glyph unicode="&#x2002;" horiz-adv-x="431" />
<glyph unicode="&#x2003;" horiz-adv-x="863" />
<glyph unicode="&#x2004;" horiz-adv-x="287" />
<glyph unicode="&#x2005;" horiz-adv-x="215" />
<glyph unicode="&#x2006;" horiz-adv-x="143" />
<glyph unicode="&#x2007;" horiz-adv-x="143" />
<glyph unicode="&#x2008;" horiz-adv-x="107" />
<glyph unicode="&#x2009;" horiz-adv-x="172" />
<glyph unicode="&#x200a;" horiz-adv-x="47" />
<glyph unicode="&#x2010;" horiz-adv-x="359" d="M79 326q30 0 82.5 -4.5t83 -5.5t85.5 5q7 4 15.5 1t12.5 -10q4 -19 -5.5 -32t-24 -17.5t-26.5 -10.5q-127 -36 -261 0q-8 2 -12.5 5t-4.5 5l-1 3q-4 24 13.5 42.5t42.5 18.5z" />
<glyph unicode="&#x2011;" horiz-adv-x="359" d="M79 326q30 0 82.5 -4.5t83 -5.5t85.5 5q7 4 15.5 1t12.5 -10q4 -19 -5.5 -32t-24 -17.5t-26.5 -10.5q-127 -36 -261 0q-8 2 -12.5 5t-4.5 5l-1 3q-4 24 13.5 42.5t42.5 18.5z" />
<glyph unicode="&#x2013;" horiz-adv-x="500" d="M100 250v100h300v-100h-300z" />
<glyph unicode="&#x2014;" horiz-adv-x="1000" d="M100 250v100h800v-100h-800z" />
<glyph unicode="&#x2018;" horiz-adv-x="214" d="M137 564q6 -9 24 -58t44 -61q21 -11 -3.5 -27.5t-48.5 -20.5q-11 -2 -20.5 4t-14.5 12.5t-13 19.5q-17 23 -41 71.5t-38 71.5q-16 25 8.5 46t50.5 18q14 -2 22 -14t15.5 -32t14.5 -30z" />
<glyph unicode="&#x2019;" horiz-adv-x="178" d="M74 570q17 34 33 52t42 18q9 0 20.5 -12t8.5 -21q-36 -94 -100 -153q-8 -7 -18 -13t-21 -8t-14 8q-6 21 0.5 41t25 49.5t23.5 38.5z" />
<glyph unicode="&#x201c;" horiz-adv-x="382" d="M325 530q12 -17 29.5 -47.5t25.5 -42.5q9 -18 -21.5 -30t-45.5 6q-20 20 -53 73.5t-57 76.5q-39 46 -16 63q28 20 55.5 5t45 -46t37.5 -58zM164 491l27 -31q13 -15 23.5 -32t12.5 -32q2 -21 -25.5 -28t-41.5 13q-73 66 -138 149q-18 18 2 44.5t41 14.5q19 -11 35 -25.5 t36 -39.5z" />
<glyph unicode="&#x201d;" horiz-adv-x="373" d="M46 561l25 23l26 24q10 9 25 18t30 12q20 7 34 -7t0 -31q-16 -22 -60 -53t-63 -54q-8 -11 -24 -15t-23 7q-13 41 30 76zM212 480q9 13 40 66t54 75q9 13 28 14.5t36 -10.5q3 -3 3 -10.5t-3 -10.5q-57 -122 -145 -192q-29 -29 -43 -17q-10 9 -9.5 20.5t5 19.5t17.5 23.5 t17 21.5z" />
<glyph unicode="&#x2022;" horiz-adv-x="286" d="M34 261q-52 105 12 159q43 41 104 40.5t92 -47.5q31 -44 25 -104t-49 -88q-50 -35 -102.5 -26t-81.5 66z" />
<glyph unicode="&#x2026;" horiz-adv-x="477" d="M456 144q22 -14 21.5 -63t-30.5 -67q-38 -21 -66.5 3t-32.5 64q-3 27 8 45t29 24.5t38 4.5t33 -11zM297 144q22 -14 21.5 -63t-30.5 -67q-38 -21 -66.5 3t-32.5 64q-3 27 8 45t29 24.5t38 4.5t33 -11zM138 144q22 -14 21.5 -63t-30.5 -67q-38 -21 -66.5 3t-32.5 64 q-3 27 8 45t29 24.5t38 4.5t33 -11z" />
<glyph unicode="&#x202f;" horiz-adv-x="172" />
<glyph unicode="&#x2039;" horiz-adv-x="457" d="M362 543q32 0 46 -21.5t-3 -39.5q-29 -32 -83.5 -54.5t-104.5 -46.5t-76 -64q42 -25 91.5 -48.5t111 -50t94.5 -42.5q19 -11 19 -29q3 -31 -28.5 -49t-61.5 -7q-7 5 -18 15.5t-15 12.5q-122 68 -282 137q-4 2 -17.5 6.5t-23 11.5t-11.5 19q0 44 38 80q46 37 151 84 t150 86q2 2 5.5 2t9 -1t8.5 -1z" />
<glyph unicode="&#x203a;" horiz-adv-x="387" d="M170 510q124 -41 200 -113q16 -12 16 -27.5t-10.5 -27.5t-27.5 -23q-46 -29 -133 -99t-140 -101q-27 -15 -47.5 7t-0.5 45q12 20 56 44q30 15 78 53.5t66 50.5q14 5 31 15.5t12 19.5q-19 33 -55.5 52.5t-72 25.5t-75 22t-62.5 43q-7 10 8 29t31 19q20 4 41 -1.5t48 -18 t37 -15.5z" />
<glyph unicode="&#x205f;" horiz-adv-x="215" />
<glyph unicode="&#x20ac;" horiz-adv-x="575" d="M232 183q11 0 31 6.5t31.5 8.5t30.5 -7q8 -2 13.5 5t8.5 5q20 -15 14.5 -30t-28.5 -23q-23 -15 -58 -26q31 -26 71 -34t80 5q9 3 24 13l26 16q11 6 25.5 10t22.5 -4q27 -22 33.5 -43t-16.5 -41q-98 -71 -250 -24q-75 24 -111 53q-19 16 -32 35q-79 8 -114 55 q-10 20 12.5 37t53.5 20q13 0 19 -1q0 19 3 38q0 1 0.5 4.5t0.5 5.5q-30 3 -60 9q-18 5 -32 19.5t-4 24.5q30 38 123 34q48 100 150 125q63 14 145 -10q18 -6 31.5 -22.5t2.5 -35.5q-6 -11 -15 -16t-25.5 -8t-22.5 -5q-20 -6 -57 2t-52 3q-33 -12 -56 -39q35 -2 60 1 q38 3 51 -20q9 -19 -7 -30.5t-44 -17.5q-60 -12 -90 -14q-3 -38 9 -76q0 -4 2 -8z" />
<glyph unicode="&#x2122;" horiz-adv-x="1034" d="M989 0q-41 -8 -49 0q-29 57 -41 135t-22 157.5t-34 135.5q-21 -34 -45 -104.5t-38 -99.5q-2 -5 0 -17t0 -17q-12 -24 -35.5 -37t-47.5 -2q-15 4 -27 17t-12 27q-11 100 -44 112q-11 4 -12.5 -8.5t1 -29.5t-2.5 -30q-9 -13 -6 -63.5t1 -63.5q-4 -28 -47 -36t-60 12 q-19 20 -21.5 50t4.5 56l17 63q11 37 14 59q7 49 15 146.5t15 146.5q4 28 40.5 31t46.5 -17q24 -33 38.5 -73.5t27.5 -96t22 -83.5l5 -6q6 -6 9 -8.5t5 -0.5q14 20 28 53t23.5 62t24.5 59t31 50t42.5 29t60.5 1q32 -93 60 -281.5t57 -278.5q6 -17 -8.5 -31t-35.5 -18zM177 2 q-16 -6 -27 5t-12 24q-5 90 12 257.5t17 239.5q0 15 -19 11t-30 -11q-6 -1 -40.5 -16.5t-51.5 -7.5q-25 11 -23 38t28 40q54 27 101.5 40t87 14t89 1t106.5 2q3 0 9 -9l5 -10q7 -21 -6 -38.5t-37 -25.5q-40 -8 -56 -8t-51 -1q-36 -176 -44 -496q0 -25 -58 -49z" />
</font>
</defs>
</svg>
